<svg width="178" height="70" viewBox="0 0 178 70" fill="none" xmlns="http://www.w3.org/2000/svg">
<path fill-rule="evenodd" clip-rule="evenodd" d="M20.2538 6.1939C20.2538 6.30054 19.9033 6.3878 19.4748 6.3878C19.0464 6.3878 18.6958 6.47505 18.6958 6.5817C18.6958 6.68834 18.5615 6.7756 18.3973 6.7756C18.0095 6.7756 16.7484 8.0313 16.7484 8.41735C16.7484 8.58081 16.6607 8.7146 16.5536 8.7146C16.4465 8.7146 16.3589 8.88911 16.3589 9.1024C16.3589 9.31569 16.2712 9.4902 16.1641 9.4902C16.036 9.4902 15.9694 14.5316 15.9694 24.2266C15.9694 33.9216 15.9028 38.963 15.7746 38.963C15.6591 38.963 15.5799 39.674 15.5799 40.7081C15.5799 41.7421 15.5006 42.4532 15.3851 42.4532C15.278 42.4532 15.1904 42.6736 15.1904 42.9429C15.1904 43.6109 13.6267 45.1678 12.9558 45.1678C12.6853 45.1678 12.4639 45.255 12.4639 45.3617C12.4639 45.4683 12.201 45.5556 11.8797 45.5556C11.5583 45.5556 11.2954 45.4683 11.2954 45.3617C11.2954 45.255 11.0325 45.1678 10.7112 45.1678C10.3898 45.1678 10.1269 45.0805 10.1269 44.9739C10.1269 44.8672 9.95164 44.78 9.73742 44.78C9.52319 44.78 9.34792 44.6927 9.34792 44.5861C9.34792 44.4794 9.17265 44.3922 8.95842 44.3922C8.7442 44.3922 8.56893 44.3049 8.56893 44.1983C8.56893 44.0916 8.39365 44.0044 8.17943 44.0044C7.96521 44.0044 7.78993 43.9171 7.78993 43.8105C7.78993 43.7038 7.61466 43.6166 7.40044 43.6166C7.18621 43.6166 7.01094 43.5293 7.01094 43.4227C7.01094 43.316 6.83567 43.2288 6.62144 43.2288C6.40722 43.2288 6.23195 43.1415 6.23195 43.0349C6.23195 42.9218 5.58285 42.841 4.67396 42.841C3.76507 42.841 3.11597 42.9218 3.11597 43.0349C3.11597 43.1415 2.9407 43.2288 2.72648 43.2288C2.51225 43.2288 2.33698 43.316 2.33698 43.4227C2.33698 43.5293 2.19929 43.6166 2.03103 43.6166C1.63744 43.6166 1.16849 44.0835 1.16849 44.4753C1.16849 44.6429 1.08085 44.78 0.973742 44.78C0.86663 44.78 0.778993 44.9545 0.778993 45.1678C0.778993 45.381 0.691357 45.5556 0.584245 45.5556C0.477133 45.5556 0.389497 45.8173 0.389497 46.1373C0.389497 46.4572 0.30186 46.719 0.194748 46.719C0.083547 46.719 0 47.3007 0 48.0762C0 48.8518 0.083547 49.4335 0.194748 49.4335C0.30186 49.4335 0.389497 49.6953 0.389497 50.0152C0.389497 50.3352 0.477133 50.5969 0.584245 50.5969C0.691357 50.5969 0.778993 50.7298 0.778993 50.8921C0.778993 51.276 2.82346 53.3115 3.20906 53.3115C3.37207 53.3115 3.50547 53.3988 3.50547 53.5054C3.50547 53.6121 3.68074 53.6993 3.89497 53.6993C4.10919 53.6993 4.28446 53.7866 4.28446 53.8932C4.28446 53.9999 4.45974 54.0871 4.67396 54.0871C4.88818 54.0871 5.06346 54.1744 5.06346 54.281C5.06346 54.3877 5.23873 54.4749 5.45295 54.4749C5.66718 54.4749 5.84245 54.5622 5.84245 54.6688C5.84245 54.7755 6.193 54.8627 6.62144 54.8627C7.04989 54.8627 7.40044 54.95 7.40044 55.0566C7.40044 55.1633 7.75098 55.2505 8.17943 55.2505C8.60788 55.2505 8.95842 55.3378 8.95842 55.4444C8.95842 55.566 10.1918 55.6383 12.2691 55.6383C14.3465 55.6383 15.5799 55.566 15.5799 55.4444C15.5799 55.3378 16.0181 55.2505 16.5536 55.2505C17.0892 55.2505 17.5274 55.1633 17.5274 55.0566C17.5274 54.95 17.7903 54.8627 18.1116 54.8627C18.4329 54.8627 18.6958 54.7755 18.6958 54.6688C18.6958 54.5622 18.8711 54.4749 19.0853 54.4749C19.2996 54.4749 19.4748 54.3877 19.4748 54.281C19.4748 54.1744 19.6501 54.0871 19.8643 54.0871C20.0786 54.0871 20.2538 53.9999 20.2538 53.8932C20.2538 53.7866 20.4098 53.6993 20.6003 53.6993C20.7909 53.6993 21.0731 53.5248 21.2276 53.3115C21.382 53.0983 21.6227 52.9237 21.7625 52.9237C22.0934 52.9237 23.7593 51.2651 23.7593 50.9357C23.7593 50.7965 23.9346 50.5568 24.1488 50.403C24.363 50.2493 24.5383 49.9683 24.5383 49.7785C24.5383 49.5889 24.6259 49.4335 24.733 49.4335C24.8402 49.4335 24.9278 49.259 24.9278 49.0457C24.9278 48.8325 25.0154 48.6579 25.1225 48.6579C25.2297 48.6579 25.3173 48.3962 25.3173 48.0762C25.3173 47.7563 25.4049 47.4945 25.512 47.4945C25.6191 47.4945 25.7068 47.1455 25.7068 46.719C25.7068 46.2924 25.7944 45.9434 25.9015 45.9434C26.0098 45.9434 26.0963 45.4262 26.0963 44.78C26.0963 44.1337 26.1827 43.6166 26.291 43.6166C26.4194 43.6166 26.4858 37.8641 26.4858 26.7473C26.4858 15.6304 26.4194 9.878 26.291 9.878C26.1839 9.878 26.0963 9.61623 26.0963 9.2963C26.0963 8.97636 26.0086 8.7146 25.9015 8.7146C25.7944 8.7146 25.7068 8.57983 25.7068 8.41502C25.7068 8.02703 24.8394 7.1634 24.4497 7.1634C24.2841 7.1634 24.1488 7.07614 24.1488 6.9695C24.1488 6.86285 23.9735 6.7756 23.7593 6.7756C23.5451 6.7756 23.3698 6.68834 23.3698 6.5817C23.3698 6.47505 23.0193 6.3878 22.5908 6.3878C22.1624 6.3878 21.8118 6.30054 21.8118 6.1939C21.8118 6.08725 21.4613 6 21.0328 6C20.6044 6 20.2538 6.08725 20.2538 6.1939ZM45.1816 17.8279C45.1816 17.9345 44.7434 18.0218 44.2079 18.0218C43.6723 18.0218 43.2341 18.109 43.2341 18.2157C43.2341 18.3223 42.9712 18.4096 42.6499 18.4096C42.3286 18.4096 42.0656 18.4968 42.0656 18.6035C42.0656 18.7101 41.8027 18.7974 41.4814 18.7974C41.1601 18.7974 40.8972 18.8846 40.8972 18.9913C40.8972 19.0979 40.7219 19.1852 40.5077 19.1852C40.2934 19.1852 40.1182 19.2724 40.1182 19.3791C40.1182 19.4857 39.9622 19.573 39.7717 19.573C39.581 19.573 39.2989 19.7475 39.1444 19.9608C38.99 20.1741 38.7428 20.3486 38.5952 20.3486C38.4478 20.3486 38.0813 20.6103 37.7812 20.9303C37.4811 21.2502 37.1368 21.512 37.0162 21.512C36.7311 21.512 35.0547 23.1811 35.0547 23.4649C35.0547 23.585 34.7918 23.9278 34.4705 24.2266C34.1491 24.5254 33.8862 24.8903 33.8862 25.0371C33.8862 25.1841 33.7109 25.4301 33.4967 25.5839C33.2825 25.7376 33.1072 26.0186 33.1072 26.2084C33.1072 26.3981 33.0196 26.5534 32.9125 26.5534C32.8054 26.5534 32.7177 26.7279 32.7177 26.9412C32.7177 27.1545 32.6301 27.329 32.523 27.329C32.4159 27.329 32.3282 27.5035 32.3282 27.7168C32.3282 27.9301 32.2406 28.1046 32.1335 28.1046C32.0264 28.1046 31.9387 28.3663 31.9387 28.6863C31.9387 29.0062 31.8511 29.268 31.744 29.268C31.6369 29.268 31.5492 29.5297 31.5492 29.8497C31.5492 30.1696 31.4616 30.4314 31.3545 30.4314C31.2474 30.4314 31.1597 30.7804 31.1597 31.207C31.1597 31.6335 31.0721 31.9826 30.965 31.9826C30.8481 31.9826 30.7702 32.7582 30.7702 33.9216C30.7702 35.085 30.6923 35.8606 30.5755 35.8606C30.4684 35.8606 30.3807 36.2096 30.3807 36.6362C30.3807 37.0627 30.4684 37.4118 30.5755 37.4118C30.691 37.4118 30.7702 38.1228 30.7702 39.1569C30.7702 40.1909 30.8495 40.902 30.965 40.902C31.0721 40.902 31.1597 41.3382 31.1597 41.8715C31.1597 42.4047 31.2474 42.841 31.3545 42.841C31.4616 42.841 31.5492 43.1027 31.5492 43.4227C31.5492 43.7426 31.6369 44.0044 31.744 44.0044C31.8511 44.0044 31.9387 44.2661 31.9387 44.5861C31.9387 44.906 32.0264 45.1678 32.1335 45.1678C32.2406 45.1678 32.3282 45.3423 32.3282 45.5556C32.3282 45.7688 32.4159 45.9434 32.523 45.9434C32.6301 45.9434 32.7177 46.1179 32.7177 46.3312C32.7177 46.5444 32.8054 46.719 32.9125 46.719C33.0196 46.719 33.1072 46.8743 33.1072 47.0639C33.1072 47.2537 33.2825 47.5347 33.4967 47.6884C33.7109 47.8422 33.8862 48.0883 33.8862 48.2352C33.8862 48.382 34.1491 48.7469 34.4705 49.0457C34.7918 49.3445 35.0547 49.687 35.0547 49.8064C35.0547 50.0895 37.1223 52.1481 37.4067 52.1481C37.5266 52.1481 37.8706 52.4099 38.1707 52.7298C38.4708 53.0498 38.8566 53.3115 39.0278 53.3115C39.1991 53.3115 39.3392 53.3988 39.3392 53.5054C39.3392 53.6121 39.5144 53.6993 39.7287 53.6993C39.9429 53.6993 40.1182 53.7866 40.1182 53.8932C40.1182 53.9999 40.2934 54.0871 40.5077 54.0871C40.7219 54.0871 40.8972 54.1744 40.8972 54.281C40.8972 54.3877 41.1601 54.4749 41.4814 54.4749C41.8027 54.4749 42.0656 54.5622 42.0656 54.6688C42.0656 54.7755 42.3286 54.8627 42.6499 54.8627C42.9712 54.8627 43.2341 54.95 43.2341 55.0566C43.2341 55.1633 43.6723 55.2505 44.2079 55.2505C44.7434 55.2505 45.1816 55.3378 45.1816 55.4444C45.1816 55.5656 46.3501 55.6383 48.2976 55.6383C50.2451 55.6383 51.4136 55.5656 51.4136 55.4444C51.4136 55.3378 51.7641 55.2505 52.1926 55.2505C52.621 55.2505 52.9716 55.1633 52.9716 55.0566C52.9716 54.95 53.3221 54.8627 53.7505 54.8627C54.179 54.8627 54.5295 54.7755 54.5295 54.6688C54.5295 54.5622 54.7048 54.4749 54.919 54.4749C55.1333 54.4749 55.3085 54.3877 55.3085 54.281C55.3085 54.1744 55.4838 54.0871 55.698 54.0871C55.9123 54.0871 56.0875 53.9999 56.0875 53.8932C56.0875 53.7866 56.2628 53.6993 56.477 53.6993C56.6912 53.6993 56.8665 53.6121 56.8665 53.5054C56.8665 53.3988 57.0065 53.3115 57.1779 53.3115C57.3491 53.3115 57.7349 53.0498 58.035 52.7298C58.3351 52.4099 58.6785 52.1481 58.7978 52.1481C59.1022 52.1481 61.93 49.3011 61.93 48.9948C61.93 48.8565 62.1053 48.6178 62.3195 48.4641C62.5337 48.3103 62.709 48.0293 62.709 47.8395C62.709 47.6499 62.7966 47.4945 62.9037 47.4945C63.0108 47.4945 63.0985 47.3392 63.0985 47.1496C63.0985 46.9598 63.2737 46.6788 63.488 46.5251C63.7166 46.3608 63.8775 46.023 63.8775 45.7066C63.8775 45.4103 63.9651 45.1678 64.0722 45.1678C64.1793 45.1678 64.267 44.9932 64.267 44.78C64.267 44.5667 64.3546 44.3922 64.4617 44.3922C64.5688 44.3922 64.6565 44.1304 64.6565 43.8105C64.6565 43.4905 64.7441 43.2288 64.8512 43.2288C64.9583 43.2288 65.046 42.8797 65.046 42.4532C65.046 42.0266 65.1336 41.6776 65.2407 41.6776C65.349 41.6776 65.4354 41.1604 65.4354 40.5142C65.4354 39.8679 65.5219 39.3508 65.6302 39.3508C65.7513 39.3508 65.8249 38.2519 65.8249 36.4423C65.8249 34.6326 65.7513 33.5338 65.6302 33.5338C65.5219 33.5338 65.4354 33.0166 65.4354 32.3704C65.4354 31.7241 65.349 31.207 65.2407 31.207C65.1336 31.207 65.046 30.9452 65.046 30.6253C65.046 30.3053 64.9583 30.0436 64.8512 30.0436C64.7441 30.0436 64.6565 29.7818 64.6565 29.4619C64.6565 29.1419 64.5688 28.8802 64.4617 28.8802C64.3546 28.8802 64.267 28.7057 64.267 28.4924C64.267 28.2791 64.1793 28.1046 64.0722 28.1046C63.9651 28.1046 63.8775 27.862 63.8775 27.5657C63.8775 27.2493 63.7166 26.9115 63.488 26.7473C63.2737 26.5935 63.0985 26.3125 63.0985 26.1227C63.0985 25.9331 63.0108 25.7778 62.9037 25.7778C62.7966 25.7778 62.709 25.6225 62.709 25.4328C62.709 25.243 62.5337 24.962 62.3195 24.8083C62.1053 24.6545 61.93 24.4158 61.93 24.278C61.93 23.9509 58.7014 20.7364 58.3729 20.7364C58.2344 20.7364 57.9947 20.5619 57.8403 20.3486C57.6858 20.1353 57.4036 19.9608 57.213 19.9608C57.0225 19.9608 56.8665 19.8735 56.8665 19.7669C56.8665 19.6602 56.6912 19.573 56.477 19.573C56.2628 19.573 56.0875 19.4857 56.0875 19.3791C56.0875 19.2724 55.9123 19.1852 55.698 19.1852C55.4838 19.1852 55.3085 19.0979 55.3085 18.9913C55.3085 18.8846 55.0456 18.7974 54.7243 18.7974C54.403 18.7974 54.14 18.7101 54.14 18.6035C54.14 18.4968 53.8771 18.4096 53.5558 18.4096C53.2345 18.4096 52.9716 18.3223 52.9716 18.2157C52.9716 18.109 52.5334 18.0218 51.9978 18.0218C51.4623 18.0218 51.0241 17.9345 51.0241 17.8279C51.0241 17.7073 49.9204 17.634 48.1028 17.634C46.2853 17.634 45.1816 17.7073 45.1816 17.8279ZM156.188 17.8279C156.188 17.9345 155.838 18.0218 155.409 18.0218C154.981 18.0218 154.63 18.109 154.63 18.2157C154.63 18.3223 154.367 18.4096 154.046 18.4096C153.725 18.4096 153.462 18.4968 153.462 18.6035C153.462 18.7101 153.286 18.7974 153.072 18.7974C152.858 18.7974 152.683 18.8846 152.683 18.9913C152.683 19.0979 152.507 19.1852 152.293 19.1852C152.079 19.1852 151.904 19.2724 151.904 19.3791C151.904 19.4857 151.748 19.573 151.557 19.573C151.367 19.573 151.084 19.7475 150.93 19.9608C150.776 20.1741 150.536 20.3486 150.398 20.3486C150.069 20.3486 146.451 23.9514 146.451 24.2782C146.451 24.416 146.275 24.6545 146.061 24.8083C145.847 24.962 145.672 25.243 145.672 25.4328C145.672 25.6225 145.584 25.7778 145.477 25.7778C145.37 25.7778 145.282 25.9523 145.282 26.1656C145.282 26.3789 145.195 26.5534 145.088 26.5534C144.98 26.5534 144.893 26.7279 144.893 26.9412C144.893 27.1545 144.805 27.329 144.698 27.329C144.591 27.329 144.503 27.5035 144.503 27.7168C144.503 27.9301 144.416 28.1046 144.309 28.1046C144.201 28.1046 144.114 28.3663 144.114 28.6863C144.114 29.0062 144.026 29.268 143.919 29.268C143.812 29.268 143.724 29.5297 143.724 29.8497C143.724 30.1696 143.637 30.4314 143.53 30.4314C143.422 30.4314 143.335 30.7804 143.335 31.207C143.335 31.6335 143.247 31.9826 143.14 31.9826C143.027 31.9826 142.945 32.6288 142.945 33.5338C142.945 34.4387 142.864 35.085 142.751 35.085C142.635 35.085 142.556 35.796 142.556 36.8301C142.556 37.8641 142.635 38.5752 142.751 38.5752C142.862 38.5752 142.945 39.1569 142.945 39.9325C142.945 40.7081 143.029 41.2898 143.14 41.2898C143.247 41.2898 143.335 41.6388 143.335 42.0654C143.335 42.4919 143.422 42.841 143.53 42.841C143.637 42.841 143.724 43.1027 143.724 43.4227C143.724 43.7426 143.812 44.0044 143.919 44.0044C144.026 44.0044 144.114 44.2661 144.114 44.5861C144.114 44.906 144.201 45.1678 144.309 45.1678C144.416 45.1678 144.503 45.3423 144.503 45.5556C144.503 45.7688 144.591 45.9434 144.698 45.9434C144.805 45.9434 144.893 46.1179 144.893 46.3312C144.893 46.5444 144.98 46.719 145.088 46.719C145.195 46.719 145.282 46.8935 145.282 47.1068C145.282 47.32 145.37 47.4945 145.477 47.4945C145.584 47.4945 145.672 47.634 145.672 47.8046C145.672 47.975 145.935 48.3591 146.256 48.6579C146.577 48.9567 146.84 49.2984 146.84 49.4171C146.84 49.7199 150.09 52.9237 150.397 52.9237C150.536 52.9237 150.776 53.0983 150.93 53.3115C151.084 53.5248 151.367 53.6993 151.557 53.6993C151.748 53.6993 151.904 53.7866 151.904 53.8932C151.904 53.9999 152.079 54.0871 152.293 54.0871C152.507 54.0871 152.683 54.1744 152.683 54.281C152.683 54.3877 152.858 54.4749 153.072 54.4749C153.286 54.4749 153.462 54.5622 153.462 54.6688C153.462 54.7755 153.725 54.8627 154.046 54.8627C154.367 54.8627 154.63 54.95 154.63 55.0566C154.63 55.1633 154.981 55.2505 155.409 55.2505C155.838 55.2505 156.188 55.3378 156.188 55.4444C156.188 55.5645 157.227 55.6383 158.915 55.6383C160.603 55.6383 161.641 55.5645 161.641 55.4444C161.641 55.3378 161.992 55.2505 162.42 55.2505C162.849 55.2505 163.199 55.1633 163.199 55.0566C163.199 54.95 163.374 54.8627 163.589 54.8627C163.803 54.8627 163.978 54.7755 163.978 54.6688C163.978 54.5622 164.153 54.4749 164.368 54.4749C164.582 54.4749 164.757 54.3877 164.757 54.281C164.757 54.1744 164.893 54.0871 165.06 54.0871C165.227 54.0871 165.879 53.5636 166.51 52.9237C167.636 51.7815 168.263 51.471 168.263 52.0555C168.263 52.4394 170.307 54.4749 170.693 54.4749C170.856 54.4749 170.989 54.5622 170.989 54.6688C170.989 54.7852 171.768 54.8627 172.937 54.8627C174.105 54.8627 174.884 54.7852 174.884 54.6688C174.884 54.5622 175.018 54.4749 175.181 54.4749C175.568 54.4749 177.221 52.8289 177.221 52.444C177.221 52.2814 177.309 52.1481 177.416 52.1481C177.523 52.1481 177.611 51.8864 177.611 51.5664C177.611 51.2465 177.698 50.9847 177.805 50.9847C177.933 50.9847 178 46.0727 178 36.6362C178 27.1996 177.933 22.2876 177.805 22.2876C177.698 22.2876 177.611 22.0258 177.611 21.7059C177.611 21.3859 177.523 21.1242 177.416 21.1242C177.309 21.1242 177.221 20.991 177.221 20.8283C177.221 20.3282 175.537 18.7974 174.986 18.7974C174.716 18.7974 174.495 18.7101 174.495 18.6035C174.495 18.4885 173.78 18.4096 172.742 18.4096C171.703 18.4096 170.989 18.4885 170.989 18.6035C170.989 18.7101 170.833 18.7974 170.643 18.7974C170.452 18.7974 170.17 18.9719 170.015 19.1852C169.861 19.3985 169.579 19.573 169.388 19.573C169.186 19.573 169.042 19.7165 169.042 19.9179C169.042 20.1078 168.866 20.3887 168.652 20.5425C168.438 20.6962 168.263 20.9772 168.263 21.167C168.263 21.8228 167.654 21.5067 166.315 20.1547C165.576 19.4082 164.835 18.7974 164.669 18.7974C164.503 18.7974 164.368 18.7101 164.368 18.6035C164.368 18.4968 164.105 18.4096 163.783 18.4096C163.462 18.4096 163.199 18.3223 163.199 18.2157C163.199 18.109 162.849 18.0218 162.42 18.0218C161.992 18.0218 161.641 17.9345 161.641 17.8279C161.641 17.7079 160.603 17.634 158.915 17.634C157.227 17.634 156.188 17.7079 156.188 17.8279ZM72.8359 18.6035C72.8359 18.7101 72.6606 18.7974 72.4464 18.7974C72.2322 18.7974 72.0569 18.8846 72.0569 18.9913C72.0569 19.0979 71.9225 19.1852 71.7583 19.1852C71.594 19.1852 71.1558 19.4877 70.7846 19.8574C70.4132 20.227 70.1094 20.6633 70.1094 20.8269C70.1094 20.9904 70.0218 21.1242 69.9147 21.1242C69.7978 21.1242 69.7199 21.8998 69.7199 23.0632C69.7199 24.2266 69.7978 25.0022 69.9147 25.0022C70.0218 25.0022 70.1094 25.2639 70.1094 25.5839C70.1094 25.9038 70.197 26.1656 70.3042 26.1656C70.4113 26.1656 70.4989 26.3401 70.4989 26.5534C70.4989 26.7667 70.5865 26.9412 70.6937 26.9412C70.8008 26.9412 70.8884 27.2029 70.8884 27.5229C70.8884 27.8428 70.976 28.1046 71.0832 28.1046C71.1903 28.1046 71.2779 28.2791 71.2779 28.4924C71.2779 28.7057 71.3655 28.8802 71.4726 28.8802C71.5798 28.8802 71.6674 29.1419 71.6674 29.4619C71.6674 29.7818 71.755 30.0436 71.8621 30.0436C71.9693 30.0436 72.0569 30.2181 72.0569 30.4314C72.0569 30.6447 72.1445 30.8192 72.2516 30.8192C72.3587 30.8192 72.4464 30.9937 72.4464 31.207C72.4464 31.4203 72.534 31.5948 72.6411 31.5948C72.7482 31.5948 72.8359 31.8565 72.8359 32.1765C72.8359 32.4964 72.9235 32.7582 73.0306 32.7582C73.1377 32.7582 73.2254 32.9327 73.2254 33.146C73.2254 33.3593 73.313 33.5338 73.4201 33.5338C73.5272 33.5338 73.6149 33.7955 73.6149 34.1155C73.6149 34.4354 73.7025 34.6972 73.8096 34.6972C73.9167 34.6972 74.0044 34.8717 74.0044 35.085C74.0044 35.2983 74.092 35.4728 74.1991 35.4728C74.3062 35.4728 74.3939 35.7345 74.3939 36.0545C74.3939 36.3744 74.4815 36.6362 74.5886 36.6362C74.6957 36.6362 74.7834 36.8107 74.7834 37.024C74.7834 37.2373 74.871 37.4118 74.9781 37.4118C75.0852 37.4118 75.1729 37.5863 75.1729 37.7996C75.1729 38.0129 75.2605 38.1874 75.3676 38.1874C75.4747 38.1874 75.5624 38.4491 75.5624 38.7691C75.5624 39.089 75.65 39.3508 75.7571 39.3508C75.8642 39.3508 75.9519 39.5253 75.9519 39.7386C75.9519 39.9518 76.0395 40.1264 76.1466 40.1264C76.2537 40.1264 76.3414 40.3881 76.3414 40.7081C76.3414 41.028 76.429 41.2898 76.5361 41.2898C76.6432 41.2898 76.7309 41.4643 76.7309 41.6776C76.7309 41.8908 76.8185 42.0654 76.9256 42.0654C77.0327 42.0654 77.1203 42.2399 77.1203 42.4532C77.1203 42.6664 77.208 42.841 77.3151 42.841C77.4222 42.841 77.5098 43.1027 77.5098 43.4227C77.5098 43.7426 77.5975 44.0044 77.7046 44.0044C77.8117 44.0044 77.8993 44.1789 77.8993 44.3922C77.8993 44.6054 77.987 44.78 78.0941 44.78C78.2012 44.78 78.2888 45.0417 78.2888 45.3617C78.2888 45.6816 78.3765 45.9434 78.4836 45.9434C78.5907 45.9434 78.6783 46.1179 78.6783 46.3312C78.6783 46.5444 78.766 46.719 78.8731 46.719C78.9802 46.719 79.0678 46.8935 79.0678 47.1068C79.0678 47.32 79.1555 47.4945 79.2626 47.4945C79.3697 47.4945 79.4573 47.7563 79.4573 48.0762C79.4573 48.3962 79.545 48.6579 79.6521 48.6579C79.7592 48.6579 79.8468 48.8325 79.8468 49.0457C79.8468 49.259 79.9345 49.4335 80.0416 49.4335C80.1487 49.4335 80.2363 49.6953 80.2363 50.0152C80.2363 50.3352 80.324 50.5969 80.4311 50.5969C80.5382 50.5969 80.6258 50.946 80.6258 51.3725C80.6258 51.7991 80.5382 52.1481 80.4311 52.1481C80.324 52.1481 80.2363 52.3227 80.2363 52.5359C80.2363 52.7492 80.1487 52.9237 80.0416 52.9237C79.9345 52.9237 79.8468 53.0983 79.8468 53.3115C79.8468 53.5248 79.7592 53.6993 79.6521 53.6993C79.545 53.6993 79.4573 53.8739 79.4573 54.0871C79.4573 54.3004 79.3697 54.4749 79.2626 54.4749C79.1555 54.4749 79.0678 54.7367 79.0678 55.0566C79.0678 55.3766 78.9802 55.6383 78.8731 55.6383C78.766 55.6383 78.6783 55.8129 78.6783 56.0261C78.6783 56.2394 78.5907 56.4139 78.4836 56.4139C78.3765 56.4139 78.2888 56.5884 78.2888 56.8017C78.2888 57.015 78.2012 57.1895 78.0941 57.1895C77.987 57.1895 77.8993 57.364 77.8993 57.5773C77.8993 57.7906 77.8117 57.9651 77.7046 57.9651C77.5975 57.9651 77.5098 58.2269 77.5098 58.5468C77.5098 58.8668 77.4222 59.1285 77.3151 59.1285C77.208 59.1285 77.1203 59.303 77.1203 59.5163C77.1203 59.7296 77.0327 59.9041 76.9256 59.9041C76.8185 59.9041 76.7309 60.1659 76.7309 60.4858C76.7309 60.8058 76.6432 61.0675 76.5361 61.0675C76.429 61.0675 76.3414 61.242 76.3414 61.4553C76.3414 61.6686 76.2537 61.8431 76.1466 61.8431C76.0395 61.8431 75.9519 62.1922 75.9519 62.6187C75.9519 63.0453 75.8642 63.3943 75.7571 63.3943C75.6436 63.3943 75.5624 64.0406 75.5624 64.9455C75.5624 65.8505 75.6436 66.4967 75.7571 66.4967C75.8642 66.4967 75.9519 66.6712 75.9519 66.8845C75.9519 67.0978 76.0395 67.2723 76.1466 67.2723C76.2537 67.2723 76.3414 67.4071 76.3414 67.5719C76.3414 67.9599 77.2088 68.8235 77.5985 68.8235C77.764 68.8235 77.8993 68.9108 77.8993 69.0174C77.8993 69.1241 78.0746 69.2113 78.2888 69.2113C78.5031 69.2113 78.6783 69.2986 78.6783 69.4052C78.6783 69.5216 79.4573 69.5991 80.6258 69.5991C81.7943 69.5991 82.5733 69.5216 82.5733 69.4052C82.5733 69.2986 82.7071 69.2113 82.8705 69.2113C83.2571 69.2113 84.9103 67.5653 84.9103 67.1804C84.9103 67.0177 84.9979 66.8845 85.105 66.8845C85.2121 66.8845 85.2998 66.71 85.2998 66.4967C85.2998 66.2834 85.3874 66.1089 85.4945 66.1089C85.6016 66.1089 85.6893 65.9344 85.6893 65.7211C85.6893 65.5078 85.7769 65.3333 85.884 65.3333C85.9911 65.3333 86.0788 65.1588 86.0788 64.9455C86.0788 64.7322 86.1664 64.5577 86.2735 64.5577C86.3806 64.5577 86.4683 64.3832 86.4683 64.1699C86.4683 63.9566 86.5559 63.7821 86.663 63.7821C86.7701 63.7821 86.8578 63.5204 86.8578 63.2004C86.8578 62.8805 86.9454 62.6187 87.0525 62.6187C87.1596 62.6187 87.2473 62.4442 87.2473 62.2309C87.2473 62.0176 87.3349 61.8431 87.442 61.8431C87.5491 61.8431 87.6368 61.6686 87.6368 61.4553C87.6368 61.242 87.7244 61.0675 87.8315 61.0675C87.9386 61.0675 88.0263 60.8058 88.0263 60.4858C88.0263 60.1659 88.1139 59.9041 88.221 59.9041C88.3281 59.9041 88.4158 59.7296 88.4158 59.5163C88.4158 59.303 88.5034 59.1285 88.6105 59.1285C88.7176 59.1285 88.8053 58.954 88.8053 58.7407C88.8053 58.5274 88.8929 58.3529 89 58.3529C89.1071 58.3529 89.1947 58.0912 89.1947 57.7712C89.1947 57.4513 89.2824 57.1895 89.3895 57.1895C89.4966 57.1895 89.5842 57.015 89.5842 56.8017C89.5842 56.5884 89.6719 56.4139 89.779 56.4139C89.8861 56.4139 89.9737 56.1522 89.9737 55.8322C89.9737 55.5123 90.0614 55.2505 90.1685 55.2505C90.2756 55.2505 90.3632 55.076 90.3632 54.8627C90.3632 54.6495 90.4509 54.4749 90.558 54.4749C90.6651 54.4749 90.7527 54.3004 90.7527 54.0871C90.7527 53.8739 90.8404 53.6993 90.9475 53.6993C91.0546 53.6993 91.1422 53.4376 91.1422 53.1176C91.1422 52.7977 91.2299 52.5359 91.337 52.5359C91.4441 52.5359 91.5317 52.3614 91.5317 52.1481C91.5317 51.9349 91.6194 51.7603 91.7265 51.7603C91.8336 51.7603 91.9212 51.5858 91.9212 51.3725C91.9212 51.1593 92.0089 50.9847 92.116 50.9847C92.2231 50.9847 92.3107 50.723 92.3107 50.403C92.3107 50.0831 92.3984 49.8213 92.5055 49.8213C92.6126 49.8213 92.7002 49.6468 92.7002 49.4335C92.7002 49.2203 92.7879 49.0457 92.895 49.0457C93.0021 49.0457 93.0897 48.8712 93.0897 48.6579C93.0897 48.4447 93.1774 48.2701 93.2845 48.2701C93.3916 48.2701 93.4792 48.0084 93.4792 47.6884C93.4792 47.3685 93.5668 47.1068 93.674 47.1068C93.7811 47.1068 93.8687 46.9322 93.8687 46.719C93.8687 46.5057 93.9563 46.3312 94.0635 46.3312C94.1706 46.3312 94.2582 46.1566 94.2582 45.9434C94.2582 45.7301 94.3458 45.5556 94.4529 45.5556C94.5601 45.5556 94.6477 45.2938 94.6477 44.9739C94.6477 44.6539 94.7353 44.3922 94.8425 44.3922C94.9496 44.3922 95.0372 44.2176 95.0372 44.0044C95.0372 43.7911 95.1248 43.6166 95.2319 43.6166C95.3391 43.6166 95.4267 43.3548 95.4267 43.0349C95.4267 42.7149 95.5143 42.4532 95.6214 42.4532C95.7286 42.4532 95.8162 42.2786 95.8162 42.0654C95.8162 41.8521 95.9038 41.6776 96.0109 41.6776C96.118 41.6776 96.2057 41.503 96.2057 41.2898C96.2057 41.0765 96.2933 40.902 96.4004 40.902C96.5075 40.902 96.5952 40.6402 96.5952 40.3203C96.5952 40.0003 96.6828 39.7386 96.7899 39.7386C96.897 39.7386 96.9847 39.564 96.9847 39.3508C96.9847 39.1375 97.0723 38.963 97.1794 38.963C97.2865 38.963 97.3742 38.7885 97.3742 38.5752C97.3742 38.3619 97.4618 38.1874 97.5689 38.1874C97.676 38.1874 97.7637 37.9256 97.7637 37.6057C97.7637 37.2857 97.8513 37.024 97.9584 37.024C98.0655 37.024 98.1532 36.8495 98.1532 36.6362C98.1532 36.4229 98.2408 36.2484 98.3479 36.2484C98.455 36.2484 98.5427 36.0739 98.5427 35.8606C98.5427 35.6473 98.6303 35.4728 98.7374 35.4728C98.8445 35.4728 98.9322 35.211 98.9322 34.8911C98.9322 34.5711 99.0198 34.3094 99.1269 34.3094C99.234 34.3094 99.3217 34.1349 99.3217 33.9216C99.3217 33.7083 99.4093 33.5338 99.5164 33.5338C99.6235 33.5338 99.7112 33.3593 99.7112 33.146C99.7112 32.9327 99.7988 32.7582 99.9059 32.7582C100.013 32.7582 100.101 32.4964 100.101 32.1765C100.101 31.8565 100.188 31.5948 100.295 31.5948C100.403 31.5948 100.49 31.4203 100.49 31.207C100.49 30.9937 100.578 30.8192 100.685 30.8192C100.792 30.8192 100.88 30.6447 100.88 30.4314C100.88 30.2181 100.967 30.0436 101.074 30.0436C101.182 30.0436 101.269 29.7818 101.269 29.4619C101.269 29.1419 101.357 28.8802 101.464 28.8802C101.571 28.8802 101.659 28.7057 101.659 28.4924C101.659 28.2791 101.746 28.1046 101.853 28.1046C101.961 28.1046 102.048 27.8428 102.048 27.5229C102.048 27.2029 102.136 26.9412 102.243 26.9412C102.35 26.9412 102.438 26.6794 102.438 26.3595C102.438 26.0395 102.525 25.7778 102.632 25.7778C102.739 25.7778 102.827 25.4288 102.827 25.0022C102.827 24.5756 102.915 24.2266 103.022 24.2266C103.129 24.2266 103.217 23.8776 103.217 23.451C103.217 23.0244 103.129 22.6754 103.022 22.6754C102.915 22.6754 102.827 22.3264 102.827 21.8998C102.827 21.4732 102.739 21.1242 102.632 21.1242C102.525 21.1242 102.438 20.9904 102.438 20.8269C102.438 20.4409 101.176 19.1852 100.789 19.1852C100.625 19.1852 100.49 19.0979 100.49 18.9913C100.49 18.8846 100.315 18.7974 100.101 18.7974C99.8864 18.7974 99.7112 18.7101 99.7112 18.6035C99.7112 18.4885 98.997 18.4096 97.9584 18.4096C96.9198 18.4096 96.2057 18.4885 96.2057 18.6035C96.2057 18.7101 96.0723 18.7974 95.9093 18.7974C95.5237 18.7974 93.4792 20.8329 93.4792 21.2169C93.4792 21.3792 93.3916 21.512 93.2845 21.512C93.1774 21.512 93.0897 21.6865 93.0897 21.8998C93.0897 22.1131 93.0021 22.2876 92.895 22.2876C92.7879 22.2876 92.7002 22.4621 92.7002 22.6754C92.7002 22.8887 92.6126 23.0632 92.5055 23.0632C92.3984 23.0632 92.3107 23.2377 92.3107 23.451C92.3107 23.6643 92.2231 23.8388 92.116 23.8388C92.0089 23.8388 91.9212 24.1005 91.9212 24.4205C91.9212 24.7404 91.8336 25.0022 91.7265 25.0022C91.6194 25.0022 91.5317 25.1767 91.5317 25.39C91.5317 25.6033 91.4441 25.7778 91.337 25.7778C91.2299 25.7778 91.1422 26.0395 91.1422 26.3595C91.1422 26.6794 91.0546 26.9412 90.9475 26.9412C90.8404 26.9412 90.7527 27.1157 90.7527 27.329C90.7527 27.5423 90.6651 27.7168 90.558 27.7168C90.4509 27.7168 90.3632 27.9785 90.3632 28.2985C90.3632 28.6184 90.2756 28.8802 90.1685 28.8802C90.0614 28.8802 89.9737 29.0547 89.9737 29.268C89.9737 29.4813 89.8861 29.6558 89.779 29.6558C89.6719 29.6558 89.5842 29.9175 89.5842 30.2375C89.5842 30.5574 89.4966 30.8192 89.3895 30.8192C89.2824 30.8192 89.1947 30.9937 89.1947 31.207C89.1947 31.4203 89.1071 31.5948 89 31.5948C88.8929 31.5948 88.8053 31.8565 88.8053 32.1765C88.8053 32.4964 88.7176 32.7582 88.6105 32.7582C88.5034 32.7582 88.4158 32.9327 88.4158 33.146C88.4158 33.3593 88.3281 33.5338 88.221 33.5338C88.1139 33.5338 88.0263 33.7955 88.0263 34.1155C88.0263 34.4354 87.9386 34.6972 87.8315 34.6972C87.7244 34.6972 87.6368 34.8717 87.6368 35.085C87.6368 35.2983 87.5491 35.4728 87.442 35.4728C87.3349 35.4728 87.2473 35.7345 87.2473 36.0545C87.2473 36.3744 87.1596 36.6362 87.0525 36.6362C86.9454 36.6362 86.8578 36.8107 86.8578 37.024C86.8578 37.2373 86.7701 37.4118 86.663 37.4118C86.5559 37.4118 86.4683 37.5863 86.4683 37.7996C86.4683 38.0129 86.4182 38.1874 86.3571 38.1874C86.1284 38.1874 85.6893 37.6225 85.6893 37.3286C85.6893 37.1611 85.6016 37.024 85.4945 37.024C85.3874 37.024 85.2998 36.7622 85.2998 36.4423C85.2998 36.1223 85.2121 35.8606 85.105 35.8606C84.9979 35.8606 84.9103 35.5988 84.9103 35.2789C84.9103 34.9589 84.8226 34.6972 84.7155 34.6972C84.6084 34.6972 84.5208 34.5227 84.5208 34.3094C84.5208 34.0961 84.4332 33.9216 84.326 33.9216C84.2189 33.9216 84.1313 33.6598 84.1313 33.3399C84.1313 33.0199 84.0437 32.7582 83.9365 32.7582C83.8294 32.7582 83.7418 32.5837 83.7418 32.3704C83.7418 32.1571 83.6542 31.9826 83.547 31.9826C83.4399 31.9826 83.3523 31.7208 83.3523 31.4009C83.3523 31.0809 83.2647 30.8192 83.1575 30.8192C83.0504 30.8192 82.9628 30.5574 82.9628 30.2375C82.9628 29.9175 82.8752 29.6558 82.7681 29.6558C82.6609 29.6558 82.5733 29.4813 82.5733 29.268C82.5733 29.0547 82.4857 28.8802 82.3786 28.8802C82.2714 28.8802 82.1838 28.6184 82.1838 28.2985C82.1838 27.9785 82.0962 27.7168 81.9891 27.7168C81.882 27.7168 81.7943 27.455 81.7943 27.1351C81.7943 26.8151 81.7067 26.5534 81.5996 26.5534C81.4924 26.5534 81.4048 26.3789 81.4048 26.1656C81.4048 25.9523 81.3172 25.7778 81.2101 25.7778C81.103 25.7778 81.0153 25.516 81.0153 25.1961C81.0153 24.8761 80.9277 24.6144 80.8206 24.6144C80.7135 24.6144 80.6258 24.4399 80.6258 24.2266C80.6258 24.0133 80.5382 23.8388 80.4311 23.8388C80.324 23.8388 80.2363 23.577 80.2363 23.2571C80.2363 22.9371 80.1487 22.6754 80.0416 22.6754C79.9345 22.6754 79.8468 22.4328 79.8468 22.1365C79.8468 21.8201 79.686 21.4823 79.4573 21.3181C79.2431 21.1643 79.0678 20.9241 79.0678 20.7841C79.0678 20.4306 77.7835 19.1852 77.4189 19.1852C77.2547 19.1852 77.1203 19.0979 77.1203 18.9913C77.1203 18.8846 76.9451 18.7974 76.7309 18.7974C76.5166 18.7974 76.3414 18.7101 76.3414 18.6035C76.3414 18.4885 75.6272 18.4096 74.5886 18.4096C73.55 18.4096 72.8359 18.4885 72.8359 18.6035ZM48.2976 27.5229C48.2976 27.6307 48.817 27.7168 49.4661 27.7168C50.1152 27.7168 50.6346 27.8029 50.6346 27.9107C50.6346 28.0173 50.7906 28.1046 50.981 28.1046C51.1717 28.1046 51.4539 28.2791 51.6083 28.4924C51.7627 28.7057 52.004 28.8802 52.1446 28.8802C52.4769 28.8802 53.7505 30.1483 53.7505 30.4791C53.7505 30.6191 53.9258 30.8593 54.14 31.0131C54.3687 31.1773 54.5295 31.5151 54.5295 31.8315C54.5295 32.1278 54.6172 32.3704 54.7243 32.3704C54.8314 32.3704 54.919 32.6321 54.919 32.9521C54.919 33.272 55.0067 33.5338 55.1138 33.5338C55.2355 33.5338 55.3085 34.6972 55.3085 36.6362C55.3085 38.5752 55.2355 39.7386 55.1138 39.7386C55.0067 39.7386 54.919 40.0003 54.919 40.3203C54.919 40.6402 54.8314 40.902 54.7243 40.902C54.6172 40.902 54.5295 41.0765 54.5295 41.2898C54.5295 41.503 54.4419 41.6776 54.3348 41.6776C54.2277 41.6776 54.14 41.8521 54.14 42.0654C54.14 42.2786 54.0524 42.4532 53.9453 42.4532C53.8382 42.4532 53.7505 42.5864 53.7505 42.749C53.7505 43.1339 52.0973 44.78 51.7108 44.78C51.5474 44.78 51.4136 44.8672 51.4136 44.9739C51.4136 45.0805 51.2383 45.1678 51.0241 45.1678C50.8098 45.1678 50.6346 45.255 50.6346 45.3617C50.6346 45.4683 50.284 45.5556 49.8556 45.5556C49.4271 45.5556 49.0766 45.6428 49.0766 45.7495C49.0766 45.8561 48.726 45.9434 48.2976 45.9434C47.8691 45.9434 47.5186 45.8561 47.5186 45.7495C47.5186 45.6428 47.0804 45.5556 46.5449 45.5556C46.0093 45.5556 45.5711 45.4683 45.5711 45.3617C45.5711 45.255 45.4151 45.1678 45.2247 45.1678C45.034 45.1678 44.7518 44.9932 44.5974 44.78C44.4429 44.5667 44.2005 44.3922 44.0587 44.3922C43.7243 44.3922 42.8446 43.5163 42.8446 43.1834C42.8446 43.0422 42.6694 42.8008 42.4551 42.6471C42.2409 42.4933 42.0656 42.2123 42.0656 42.0225C42.0656 41.8329 41.978 41.6776 41.8709 41.6776C41.7638 41.6776 41.6761 41.4158 41.6761 41.0959C41.6761 40.7759 41.5885 40.5142 41.4814 40.5142C41.3743 40.5142 41.2867 40.2524 41.2867 39.9325C41.2867 39.6125 41.199 39.3508 41.0919 39.3508C40.9714 39.3508 40.8972 38.3167 40.8972 36.6362C40.8972 34.9556 40.9714 33.9216 41.0919 33.9216C41.199 33.9216 41.2867 33.6598 41.2867 33.3399C41.2867 33.0199 41.3743 32.7582 41.4814 32.7582C41.5885 32.7582 41.6761 32.4964 41.6761 32.1765C41.6761 31.8565 41.7638 31.5948 41.8709 31.5948C41.978 31.5948 42.0656 31.4554 42.0656 31.2847C42.0656 31.1143 42.3286 30.7302 42.6499 30.4314C42.9712 30.1326 43.2341 29.7859 43.2341 29.661C43.2341 29.3529 43.7304 28.8802 44.0536 28.8802C44.1983 28.8802 44.4429 28.7057 44.5974 28.4924C44.7623 28.2647 45.1016 28.1046 45.4194 28.1046C45.717 28.1046 45.9606 28.0173 45.9606 27.9107C45.9606 27.804 46.3988 27.7168 46.9344 27.7168C47.4699 27.7168 47.9081 27.6295 47.9081 27.5229C47.9081 27.4162 47.9957 27.329 48.1028 27.329C48.21 27.329 48.2976 27.4162 48.2976 27.5229ZM162.81 27.9107C162.81 28.0173 162.985 28.1046 163.199 28.1046C163.413 28.1046 163.589 28.1918 163.589 28.2985C163.589 28.4051 163.722 28.4924 163.886 28.4924C164.248 28.4924 165.926 30.1273 165.926 30.4804C165.926 30.6196 166.101 30.8593 166.315 31.0131C166.544 31.1773 166.705 31.5151 166.705 31.8315C166.705 32.1278 166.792 32.3704 166.899 32.3704C167.006 32.3704 167.094 32.6321 167.094 32.9521C167.094 33.272 167.182 33.5338 167.289 33.5338C167.411 33.5338 167.484 34.6972 167.484 36.6362C167.484 38.5752 167.411 39.7386 167.289 39.7386C167.182 39.7386 167.094 40.0003 167.094 40.3203C167.094 40.6402 167.006 40.902 166.899 40.902C166.792 40.902 166.705 41.0765 166.705 41.2898C166.705 41.503 166.617 41.6776 166.51 41.6776C166.403 41.6776 166.315 41.8521 166.315 42.0654C166.315 42.2786 166.227 42.4532 166.12 42.4532C166.013 42.4532 165.926 42.5864 165.926 42.749C165.926 43.1339 164.272 44.78 163.886 44.78C163.722 44.78 163.589 44.8672 163.589 44.9739C163.589 45.0805 163.413 45.1678 163.199 45.1678C162.985 45.1678 162.81 45.255 162.81 45.3617C162.81 45.4683 162.459 45.5556 162.031 45.5556C161.602 45.5556 161.252 45.6428 161.252 45.7495C161.252 45.8561 160.901 45.9434 160.473 45.9434C160.044 45.9434 159.694 45.8561 159.694 45.7495C159.694 45.6428 159.255 45.5556 158.72 45.5556C158.184 45.5556 157.746 45.4683 157.746 45.3617C157.746 45.255 157.59 45.1678 157.4 45.1678C157.209 45.1678 156.927 44.9932 156.772 44.78C156.618 44.5667 156.376 44.3922 156.234 44.3922C155.899 44.3922 155.02 43.5163 155.02 43.1834C155.02 43.0422 154.844 42.8008 154.63 42.6471C154.416 42.4933 154.241 42.2123 154.241 42.0225C154.241 41.8329 154.153 41.6776 154.046 41.6776C153.939 41.6776 153.851 41.4158 153.851 41.0959C153.851 40.7759 153.764 40.5142 153.656 40.5142C153.549 40.5142 153.462 40.1651 153.462 39.7386C153.462 39.312 153.374 38.963 153.267 38.963C153.147 38.963 153.072 37.9935 153.072 36.4423C153.072 34.8911 153.147 33.9216 153.267 33.9216C153.374 33.9216 153.462 33.6598 153.462 33.3399C153.462 33.0199 153.549 32.7582 153.656 32.7582C153.764 32.7582 153.851 32.4964 153.851 32.1765C153.851 31.8565 153.939 31.5948 154.046 31.5948C154.153 31.5948 154.241 31.4554 154.241 31.2847C154.241 31.1143 154.504 30.7302 154.825 30.4314C155.146 30.1326 155.409 29.7485 155.409 29.578C155.409 29.4074 155.549 29.268 155.721 29.268C155.892 29.268 156.278 29.0062 156.578 28.6863C156.913 28.3285 157.318 28.1046 157.63 28.1046C157.908 28.1046 158.136 28.0173 158.136 27.9107C158.136 27.7922 159.045 27.7168 160.473 27.7168C161.901 27.7168 162.81 27.7922 162.81 27.9107Z" fill="#2783FE"/>
<path fill-rule="evenodd" clip-rule="evenodd" d="M120 35.8715C119.61 33.8679 119.377 29.5116 121.558 28.1155C124.284 26.3704 130.127 25.4009 133.827 22.2985C137.527 19.1961 138.501 16.0937 136.748 14.3486C134.995 12.6035 129.932 14.7364 127.4 18.2266C124.868 21.7168 121.168 26.7582 119.805 28.3094C118.442 29.8606 118.442 29.4728 118.247 29.2789C118.052 29.085 117.468 26.9521 118.637 25.0131C119.805 23.0741 119.221 21.9107 118.247 21.5229C117.273 21.1351 115.521 22.6863 115.91 25.0131C116.3 27.3399 116.689 27.3399 116.3 27.9216C115.91 28.5033 114.742 26.3704 114.742 24.8192C114.742 17.6449 118.637 12.7974 118.247 7.75599C118.247 5.17066 116.884 0 111.431 0C104.615 0 105.004 7.17429 105.004 8.72549C105.004 13.3791 112.599 20.1656 113.184 26.5643C113.638 29.2789 114.04 36.4532 112.015 43.4336C109.483 52.159 107.619 57.2004 108.12 60.6906C108.621 64.1808 115.131 73.488 119.415 61.0784C119.805 59.398 120.35 55.2227 119.415 51.9651C118.247 47.8932 115.91 46.9238 117.078 44.4031C118.247 41.8824 120 42.4641 121.947 44.4031C123.895 46.3421 126.816 52.5468 130.516 54.6797C134.216 56.8126 136.748 57.3943 137.917 56.037C139.085 54.6797 138.89 51.1895 135.774 49.4444C132.658 47.6993 129.737 47.8932 125.453 44.9848C122.025 42.658 120.389 37.9397 120 35.8715ZM114.936 4.4597C114.157 2.44314 112.145 1.939 111.236 1.939C111.106 2.00363 111.119 2.36558 112.21 3.2963C113.573 4.4597 114.742 7.17429 114.936 7.75599C115.092 8.22135 115.521 8.72549 115.715 8.91939C115.78 8.27306 115.715 6.47625 114.936 4.4597ZM131.879 15.3181C130.477 15.7834 129.737 17.3217 129.542 18.0327C129.672 18.1619 130.01 18.2654 130.321 17.6449C130.711 16.8693 132.853 16.0937 133.827 15.8998C134.801 15.7059 135.969 15.3181 135.385 15.1242C134.801 14.9303 133.632 14.7364 131.879 15.3181ZM136.359 51.9651C135.58 50.7242 133.957 50.4139 133.243 50.4139C132.658 50.6078 133.048 50.8017 133.243 50.8017C133.437 50.8017 134.995 51.5773 135.58 53.1285C136.047 54.3695 136.943 54.809 137.332 54.8736C137.332 54.4212 137.138 53.2061 136.359 51.9651Z" fill="#F48534"/>
<path d="M138.306 13.3791C138.111 12.9267 138.15 11.5176 139.864 9.50109C142.006 6.98039 143.564 7.94989 143.954 8.72549C144.343 9.50109 144.343 11.8279 142.591 12.6035C140.838 13.3791 139.864 14.5425 138.306 13.3791Z" fill="#F48534"/>
</svg>
