<svg width="20" height="20" viewBox="0 0 20 20" fill="none" xmlns="http://www.w3.org/2000/svg">
<path d="M10 20C4.47715 20 0 15.5228 0 10C0 4.47715 4.47715 0 10 0C15.5228 0 20 4.47715 20 10C19.9939 15.5203 15.5203 19.9939 10 20ZM9.984 18H10C14.4167 17.9956 17.9942 14.4127 17.992 9.996C17.9898 5.57929 14.4087 2 9.992 2C5.57528 2 1.99421 5.57929 1.992 9.996C1.98979 14.4127 5.56729 17.9956 9.984 18ZM8.70711 14.2929C8.31658 14.6834 7.68342 14.6834 7.29289 14.2929L4.70568 11.7057C4.31594 11.3159 4.31594 10.6841 4.70568 10.2943C5.09489 9.90511 5.72572 9.9045 6.11568 10.293L7.2929 11.4656C7.68364 11.8549 8.31575 11.8542 8.70574 11.4643L13.8804 6.28961C14.2719 5.89811 14.9074 5.89963 15.2975 6.29251C15.6857 6.68343 15.6849 7.31506 15.2954 7.70461L8.70711 14.2929Z" fill="url(#paint0_linear_148_9)"/>
<defs>
<linearGradient id="paint0_linear_148_9" x1="10.5307" y1="-7.56506e-08" x2="12.3291" y2="19.837" gradientUnits="userSpaceOnUse">
<stop stop-color="#F8A263"/>
<stop offset="1" stop-color="#F48534"/>
</linearGradient>
</defs>
</svg>
