<svg width="16" height="15" viewBox="0 0 16 15" fill="none" xmlns="http://www.w3.org/2000/svg">
<path d="M8 15C3.58172 15 0 11.6421 0 7.5C0 3.35786 3.58172 0 8 0C12.4183 0 16 3.35786 16 7.5C15.9952 11.6403 12.4163 14.9955 8 15ZM7.9872 13.5H8C11.5334 13.4967 14.3954 10.8095 14.3936 7.497C14.3918 4.18447 11.527 1.5 7.9936 1.5C4.46023 1.5 1.59537 4.18447 1.5936 7.497C1.59183 10.8095 4.45383 13.4967 7.9872 13.5ZM7.08394 10.6088C6.69928 10.9694 6.10072 10.9694 5.71606 10.6088L3.80089 8.81334C3.47549 8.50827 3.47549 7.99173 3.80089 7.68666C4.0975 7.40859 4.55892 7.40815 4.85606 7.68565L5.71615 8.48886C6.10096 8.84823 6.6985 8.84765 7.08262 8.48754L11.1406 4.68318C11.4392 4.40327 11.904 4.40409 12.2016 4.68506C12.526 4.99134 12.5251 5.5077 12.1996 5.81283L7.08394 10.6088Z" fill="url(#paint0_linear_167_0)"/>
<defs>
<linearGradient id="paint0_linear_167_0" x1="8.42458" y1="-5.6738e-08" x2="9.69035" y2="14.8924" gradientUnits="userSpaceOnUse">
<stop stop-color="#F8A263"/>
<stop offset="1" stop-color="#F48534"/>
</linearGradient>
</defs>
</svg>
