<svg width="28" height="20" viewBox="0 0 28 20" fill="none" xmlns="http://www.w3.org/2000/svg">
<rect y="6.10352e-05" width="28" height="20" rx="2" fill="white"/>
<mask id="mask0_23_145" style="mask-type:alpha" maskUnits="userSpaceOnUse" x="0" y="0" width="28" height="20">
<rect y="6.10352e-05" width="28" height="20" rx="2" fill="white"/>
</mask>
<g mask="url(#mask0_23_145)">
<path fill-rule="evenodd" clip-rule="evenodd" d="M28 6.10352e-05H0V1.33339H28V6.10352e-05ZM28 2.66673H0V4.00006H28V2.66673ZM0 5.33339H28V6.66673H0V5.33339ZM28 8.00006H0V9.33339H28V8.00006ZM0 10.6667H28V12.0001H0V10.6667ZM28 13.3334H0V14.6667H28V13.3334ZM0 16.0001H28V17.3334H0V16.0001ZM28 18.6667H0V20.0001H28V18.6667Z" fill="#D02F44"/>
<rect y="6.10352e-05" width="12" height="9.33333" fill="#46467F"/>
<g filter="url(#filter0_d_23_145)">
<path fill-rule="evenodd" clip-rule="evenodd" d="M2.66665 2.00006C2.66665 2.36825 2.36817 2.66673 1.99998 2.66673C1.63179 2.66673 1.33331 2.36825 1.33331 2.00006C1.33331 1.63187 1.63179 1.3334 1.99998 1.3334C2.36817 1.3334 2.66665 1.63187 2.66665 2.00006ZM5.33331 2.00006C5.33331 2.36825 5.03484 2.66673 4.66665 2.66673C4.29846 2.66673 3.99998 2.36825 3.99998 2.00006C3.99998 1.63187 4.29846 1.3334 4.66665 1.3334C5.03484 1.3334 5.33331 1.63187 5.33331 2.00006ZM7.33331 2.66673C7.7015 2.66673 7.99998 2.36825 7.99998 2.00006C7.99998 1.63187 7.7015 1.3334 7.33331 1.3334C6.96512 1.3334 6.66665 1.63187 6.66665 2.00006C6.66665 2.36825 6.96512 2.66673 7.33331 2.66673ZM10.6666 2.00006C10.6666 2.36825 10.3682 2.66673 9.99998 2.66673C9.63179 2.66673 9.33331 2.36825 9.33331 2.00006C9.33331 1.63187 9.63179 1.3334 9.99998 1.3334C10.3682 1.3334 10.6666 1.63187 10.6666 2.00006ZM3.33331 4.00006C3.7015 4.00006 3.99998 3.70158 3.99998 3.3334C3.99998 2.96521 3.7015 2.66673 3.33331 2.66673C2.96512 2.66673 2.66665 2.96521 2.66665 3.3334C2.66665 3.70158 2.96512 4.00006 3.33331 4.00006ZM6.66665 3.3334C6.66665 3.70158 6.36817 4.00006 5.99998 4.00006C5.63179 4.00006 5.33331 3.70158 5.33331 3.3334C5.33331 2.96521 5.63179 2.66673 5.99998 2.66673C6.36817 2.66673 6.66665 2.96521 6.66665 3.3334ZM8.66665 4.00006C9.03484 4.00006 9.33331 3.70158 9.33331 3.3334C9.33331 2.96521 9.03484 2.66673 8.66665 2.66673C8.29846 2.66673 7.99998 2.96521 7.99998 3.3334C7.99998 3.70158 8.29846 4.00006 8.66665 4.00006ZM10.6666 4.66673C10.6666 5.03492 10.3682 5.3334 9.99998 5.3334C9.63179 5.3334 9.33331 5.03492 9.33331 4.66673C9.33331 4.29854 9.63179 4.00006 9.99998 4.00006C10.3682 4.00006 10.6666 4.29854 10.6666 4.66673ZM7.33331 5.3334C7.7015 5.3334 7.99998 5.03492 7.99998 4.66673C7.99998 4.29854 7.7015 4.00006 7.33331 4.00006C6.96512 4.00006 6.66665 4.29854 6.66665 4.66673C6.66665 5.03492 6.96512 5.3334 7.33331 5.3334ZM5.33331 4.66673C5.33331 5.03492 5.03484 5.3334 4.66665 5.3334C4.29846 5.3334 3.99998 5.03492 3.99998 4.66673C3.99998 4.29854 4.29846 4.00006 4.66665 4.00006C5.03484 4.00006 5.33331 4.29854 5.33331 4.66673ZM1.99998 5.3334C2.36817 5.3334 2.66665 5.03492 2.66665 4.66673C2.66665 4.29854 2.36817 4.00006 1.99998 4.00006C1.63179 4.00006 1.33331 4.29854 1.33331 4.66673C1.33331 5.03492 1.63179 5.3334 1.99998 5.3334ZM3.99998 6.00006C3.99998 6.36825 3.7015 6.66673 3.33331 6.66673C2.96512 6.66673 2.66665 6.36825 2.66665 6.00006C2.66665 5.63187 2.96512 5.3334 3.33331 5.3334C3.7015 5.3334 3.99998 5.63187 3.99998 6.00006ZM5.99998 6.66673C6.36817 6.66673 6.66665 6.36825 6.66665 6.00006C6.66665 5.63187 6.36817 5.3334 5.99998 5.3334C5.63179 5.3334 5.33331 5.63187 5.33331 6.00006C5.33331 6.36825 5.63179 6.66673 5.99998 6.66673ZM9.33331 6.00006C9.33331 6.36825 9.03484 6.66673 8.66665 6.66673C8.29846 6.66673 7.99998 6.36825 7.99998 6.00006C7.99998 5.63187 8.29846 5.3334 8.66665 5.3334C9.03484 5.3334 9.33331 5.63187 9.33331 6.00006ZM9.99998 8.00006C10.3682 8.00006 10.6666 7.70158 10.6666 7.3334C10.6666 6.96521 10.3682 6.66673 9.99998 6.66673C9.63179 6.66673 9.33331 6.96521 9.33331 7.3334C9.33331 7.70158 9.63179 8.00006 9.99998 8.00006ZM7.99998 7.3334C7.99998 7.70158 7.7015 8.00006 7.33331 8.00006C6.96512 8.00006 6.66665 7.70158 6.66665 7.3334C6.66665 6.96521 6.96512 6.66673 7.33331 6.66673C7.7015 6.66673 7.99998 6.96521 7.99998 7.3334ZM4.66665 8.00006C5.03484 8.00006 5.33331 7.70158 5.33331 7.3334C5.33331 6.96521 5.03484 6.66673 4.66665 6.66673C4.29846 6.66673 3.99998 6.96521 3.99998 7.3334C3.99998 7.70158 4.29846 8.00006 4.66665 8.00006ZM2.66665 7.3334C2.66665 7.70158 2.36817 8.00006 1.99998 8.00006C1.63179 8.00006 1.33331 7.70158 1.33331 7.3334C1.33331 6.96521 1.63179 6.66673 1.99998 6.66673C2.36817 6.66673 2.66665 6.96521 2.66665 7.3334Z" fill="url(#paint0_linear_23_145)"/>
</g>
</g>
<defs>
<filter id="filter0_d_23_145" x="1.33331" y="1.3334" width="9.33331" height="7.66667" filterUnits="userSpaceOnUse" color-interpolation-filters="sRGB">
<feFlood flood-opacity="0" result="BackgroundImageFix"/>
<feColorMatrix in="SourceAlpha" type="matrix" values="0 0 0 0 0 0 0 0 0 0 0 0 0 0 0 0 0 0 127 0" result="hardAlpha"/>
<feOffset dy="1"/>
<feColorMatrix type="matrix" values="0 0 0 0 0 0 0 0 0 0 0 0 0 0 0 0 0 0 0.06 0"/>
<feBlend mode="normal" in2="BackgroundImageFix" result="effect1_dropShadow_23_145"/>
<feBlend mode="normal" in="SourceGraphic" in2="effect1_dropShadow_23_145" result="shape"/>
</filter>
<linearGradient id="paint0_linear_23_145" x1="1.33331" y1="1.3334" x2="1.33331" y2="8.00006" gradientUnits="userSpaceOnUse">
<stop stop-color="white"/>
<stop offset="1" stop-color="#F0F0F0"/>
</linearGradient>
</defs>
</svg>
