<svg width="38" height="38" viewBox="0 0 38 38" fill="none" xmlns="http://www.w3.org/2000/svg">
<circle cx="19.2539" cy="19.0176" r="18.418" fill="#4E6297"/>
<path d="M27.542 13.3252C27.542 11.9462 26.3253 10.7295 24.9463 10.7295H14.4824C13.1034 10.7295 11.8867 11.9462 11.8867 13.3252V23.7891C11.8867 25.168 13.1034 26.3848 14.4824 26.3848H19.7549V20.4633H17.8081V17.8677H19.7549V16.8132C19.7549 15.0286 21.0528 13.4874 22.6751 13.4874H24.7841V16.0831H22.6751C22.4317 16.0831 22.1884 16.3265 22.1884 16.8132V17.8677H24.7841V20.4633H22.1884V26.3848H24.9463C26.3253 26.3848 27.542 25.168 27.542 23.7891V13.3252Z" fill="white"/>
</svg>
