<svg width="37" height="38" viewBox="0 0 37 38" fill="none" xmlns="http://www.w3.org/2000/svg">
<circle cx="18.418" cy="19.0176" r="18.418" fill="url(#paint0_linear_35_9)"/>
<path d="M24.4782 11.6504H13.2786C12.0142 11.6504 11.0508 12.6138 11.0508 13.8783V25.0778C11.0508 26.3423 12.0142 27.3057 13.2786 27.3057H24.4782C25.7427 27.3057 26.7061 26.3423 26.7061 25.0778V13.8783C26.7061 12.6138 25.7427 11.6504 24.4782 11.6504ZM18.8784 24.1746C21.4676 24.1746 23.575 22.1274 23.575 19.6587C23.575 19.2372 23.5148 18.7555 23.3944 18.3942H24.719V24.7767C24.719 25.0778 24.4782 25.3789 24.1169 25.3789H13.6399C13.3389 25.3789 13.0378 25.138 13.0378 24.7767V18.334H14.4227C14.3023 18.7555 14.2421 19.177 14.2421 19.5985C14.1818 22.1274 16.2893 24.1746 18.8784 24.1746ZM18.8784 22.3682C17.1925 22.3682 15.8678 21.0436 15.8678 19.4178C15.8678 17.7921 17.1925 16.4674 18.8784 16.4674C20.5644 16.4674 21.8891 17.7921 21.8891 19.4178C21.8891 21.1038 20.5644 22.3682 18.8784 22.3682ZM24.6588 15.9255C24.6588 16.2868 24.3578 16.5878 23.9965 16.5878H22.3105C21.9493 16.5878 21.6482 16.2868 21.6482 15.9255V14.2997C21.6482 13.9385 21.9493 13.6374 22.3105 13.6374H23.9965C24.3578 13.6374 24.6588 13.9385 24.6588 14.2997V15.9255Z" fill="white"/>
<defs>
<linearGradient id="paint0_linear_35_9" x1="7.82764" y1="33.2915" x2="32.2315" y2="7.9668" gradientUnits="userSpaceOnUse">
<stop stop-color="#EEA054"/>
<stop offset="0.502762" stop-color="#D64763"/>
<stop offset="1" stop-color="#B62A99"/>
</linearGradient>
</defs>
</svg>
