<svg width="121" height="48" viewBox="0 0 121 48" fill="none" xmlns="http://www.w3.org/2000/svg">
<path fill-rule="evenodd" clip-rule="evenodd" d="M13.7681 4.38108C13.7681 4.45357 13.5298 4.51289 13.2385 4.51289C12.9473 4.51289 12.709 4.5722 12.709 4.6447C12.709 4.71719 12.6176 4.7765 12.506 4.7765C12.2424 4.7765 11.3851 5.6301 11.3851 5.89253C11.3851 6.00364 11.3255 6.09459 11.2527 6.09459C11.1799 6.09459 11.1204 6.21321 11.1204 6.3582C11.1204 6.50319 11.0608 6.62182 10.988 6.62182C10.9009 6.62182 10.8556 10.0488 10.8556 16.6392C10.8556 23.2297 10.8103 26.6567 10.7232 26.6567C10.6447 26.6567 10.5908 27.14 10.5908 27.843C10.5908 28.5459 10.5369 29.0292 10.4584 29.0292C10.3856 29.0292 10.326 29.1791 10.326 29.3622C10.326 29.8163 9.26312 30.8745 8.80705 30.8745C8.62317 30.8745 8.47265 30.9339 8.47265 31.0063C8.47265 31.0788 8.29393 31.1382 8.07549 31.1382C7.85706 31.1382 7.67834 31.0788 7.67834 31.0063C7.67834 30.9339 7.49962 30.8745 7.28118 30.8745C7.06275 30.8745 6.88403 30.8152 6.88403 30.7427C6.88403 30.6702 6.76488 30.6109 6.61926 30.6109C6.47363 30.6109 6.35449 30.5516 6.35449 30.4791C6.35449 30.4066 6.23534 30.3473 6.08972 30.3473C5.94409 30.3473 5.82495 30.288 5.82495 30.2155C5.82495 30.143 5.7058 30.0837 5.56018 30.0837C5.41455 30.0837 5.2954 30.0244 5.2954 29.9519C5.2954 29.8794 5.17626 29.8201 5.03063 29.8201C4.88501 29.8201 4.76586 29.7608 4.76586 29.6883C4.76586 29.6158 4.64672 29.5565 4.50109 29.5565C4.35547 29.5565 4.23632 29.4971 4.23632 29.4247C4.23632 29.3478 3.79508 29.2928 3.17724 29.2928C2.5594 29.2928 2.11816 29.3478 2.11816 29.4247C2.11816 29.4971 1.99902 29.5565 1.85339 29.5565C1.70777 29.5565 1.58862 29.6158 1.58862 29.6883C1.58862 29.7608 1.49503 29.8201 1.38064 29.8201C1.11309 29.8201 0.794311 30.1375 0.794311 30.4039C0.794311 30.5177 0.734737 30.6109 0.661926 30.6109C0.589114 30.6109 0.52954 30.7296 0.52954 30.8745C0.52954 31.0195 0.469967 31.1382 0.397155 31.1382C0.324344 31.1382 0.26477 31.3161 0.26477 31.5336C0.26477 31.7511 0.205197 31.929 0.132385 31.929C0.0567932 31.929 0 32.3244 0 32.8517C0 33.3789 0.0567932 33.7743 0.132385 33.7743C0.205197 33.7743 0.26477 33.9523 0.26477 34.1697C0.26477 34.3872 0.324344 34.5652 0.397155 34.5652C0.469967 34.5652 0.52954 34.6555 0.52954 34.7658C0.52954 35.0268 1.91932 36.4105 2.18144 36.4105C2.29225 36.4105 2.38293 36.4698 2.38293 36.5423C2.38293 36.6148 2.50208 36.6741 2.6477 36.6741C2.79333 36.6741 2.91247 36.7334 2.91247 36.8059C2.91247 36.8784 3.03162 36.9377 3.17724 36.9377C3.32287 36.9377 3.44201 36.997 3.44201 37.0695C3.44201 37.142 3.56116 37.2013 3.70678 37.2013C3.85241 37.2013 3.97155 37.2607 3.97155 37.3331C3.97155 37.4056 4.20985 37.465 4.50109 37.465C4.79234 37.465 5.03063 37.5243 5.03063 37.5968C5.03063 37.6693 5.26893 37.7286 5.56018 37.7286C5.85142 37.7286 6.08972 37.7879 6.08972 37.8604C6.08972 37.943 6.92811 37.9922 8.34026 37.9922C9.75241 37.9922 10.5908 37.943 10.5908 37.8604C10.5908 37.7879 10.8887 37.7286 11.2527 37.7286C11.6168 37.7286 11.9147 37.6693 11.9147 37.5968C11.9147 37.5243 12.0934 37.465 12.3118 37.465C12.5303 37.465 12.709 37.4056 12.709 37.3331C12.709 37.2607 12.8281 37.2013 12.9737 37.2013C13.1194 37.2013 13.2385 37.142 13.2385 37.0695C13.2385 36.997 13.3577 36.9377 13.5033 36.9377C13.6489 36.9377 13.7681 36.8784 13.7681 36.8059C13.7681 36.7334 13.8741 36.6741 14.0036 36.6741C14.1332 36.6741 14.325 36.5555 14.43 36.4105C14.535 36.2655 14.6986 36.1469 14.7936 36.1469C15.0186 36.1469 16.151 35.0194 16.151 34.7954C16.151 34.7008 16.2701 34.5379 16.4158 34.4334C16.5614 34.3288 16.6805 34.1378 16.6805 34.0088C16.6805 33.8799 16.7401 33.7743 16.8129 33.7743C16.8857 33.7743 16.9453 33.6557 16.9453 33.5107C16.9453 33.3657 17.0049 33.2471 17.0777 33.2471C17.1505 33.2471 17.2101 33.0691 17.2101 32.8517C17.2101 32.6342 17.2696 32.4562 17.3425 32.4562C17.4153 32.4562 17.4748 32.219 17.4748 31.929C17.4748 31.639 17.5344 31.4018 17.6072 31.4018C17.6808 31.4018 17.7396 31.0502 17.7396 30.6109C17.7396 30.1716 17.7984 29.8201 17.872 29.8201C17.9592 29.8201 18.0044 25.9097 18.0044 18.3528C18.0044 10.7958 17.9592 6.88544 17.872 6.88544C17.7992 6.88544 17.7396 6.7075 17.7396 6.49001C17.7396 6.27253 17.68 6.09459 17.6072 6.09459C17.5344 6.09459 17.4748 6.00298 17.4748 5.89094C17.4748 5.62719 16.8852 5.04012 16.6203 5.04012C16.5078 5.04012 16.4158 4.98081 16.4158 4.90831C16.4158 4.83582 16.2966 4.7765 16.151 4.7765C16.0054 4.7765 15.8862 4.71719 15.8862 4.6447C15.8862 4.5722 15.6479 4.51289 15.3567 4.51289C15.0654 4.51289 14.8271 4.45357 14.8271 4.38108C14.8271 4.30859 14.5888 4.24927 14.2976 4.24927C14.0063 4.24927 13.7681 4.30859 13.7681 4.38108ZM30.7133 12.2896C30.7133 12.3621 30.4155 12.4214 30.0514 12.4214C29.6874 12.4214 29.3895 12.4807 29.3895 12.5532C29.3895 12.6257 29.2108 12.685 28.9923 12.685C28.7739 12.685 28.5952 12.7443 28.5952 12.8168C28.5952 12.8893 28.4165 12.9486 28.198 12.9486C27.9796 12.9486 27.8009 13.0079 27.8009 13.0804C27.8009 13.1529 27.6817 13.2122 27.5361 13.2122C27.3905 13.2122 27.2713 13.2715 27.2713 13.344C27.2713 13.4165 27.1653 13.4759 27.0358 13.4759C26.9062 13.4759 26.7144 13.5945 26.6094 13.7395C26.5044 13.8845 26.3364 14.0031 26.2361 14.0031C26.1359 14.0031 25.8867 14.181 25.6827 14.3985C25.4787 14.616 25.2446 14.7939 25.1627 14.7939C24.9689 14.7939 23.8293 15.9285 23.8293 16.1215C23.8293 16.2031 23.6506 16.4361 23.4322 16.6392C23.2137 16.8424 23.035 17.0904 23.035 17.1902C23.035 17.2901 22.9159 17.4574 22.7702 17.5619C22.6246 17.6664 22.5055 17.8574 22.5055 17.9865C22.5055 18.1154 22.4459 18.2209 22.3731 18.2209C22.3003 18.2209 22.2407 18.3396 22.2407 18.4846C22.2407 18.6296 22.1811 18.7482 22.1083 18.7482C22.0355 18.7482 21.9759 18.8668 21.9759 19.0118C21.9759 19.1568 21.9164 19.2754 21.8435 19.2754C21.7707 19.2754 21.7112 19.4534 21.7112 19.6708C21.7112 19.8883 21.6516 20.0663 21.5788 20.0663C21.506 20.0663 21.4464 20.2442 21.4464 20.4617C21.4464 20.6792 21.3868 20.8571 21.314 20.8571C21.2412 20.8571 21.1816 21.0944 21.1816 21.3843C21.1816 21.6743 21.122 21.9116 21.0492 21.9116C20.9698 21.9116 20.9168 22.4388 20.9168 23.2297C20.9168 24.0205 20.8639 24.5477 20.7845 24.5477C20.7117 24.5477 20.6521 24.785 20.6521 25.075C20.6521 25.365 20.7117 25.6022 20.7845 25.6022C20.863 25.6022 20.9168 26.0856 20.9168 26.7885C20.9168 27.4914 20.9707 27.9748 21.0492 27.9748C21.122 27.9748 21.1816 28.2713 21.1816 28.6338C21.1816 28.9963 21.2412 29.2928 21.314 29.2928C21.3868 29.2928 21.4464 29.4708 21.4464 29.6883C21.4464 29.9058 21.506 30.0837 21.5788 30.0837C21.6516 30.0837 21.7112 30.2616 21.7112 30.4791C21.7112 30.6966 21.7707 30.8745 21.8435 30.8745C21.9164 30.8745 21.9759 30.9932 21.9759 31.1382C21.9759 31.2831 22.0355 31.4018 22.1083 31.4018C22.1811 31.4018 22.2407 31.5204 22.2407 31.6654C22.2407 31.8104 22.3003 31.929 22.3731 31.929C22.4459 31.929 22.5055 32.0346 22.5055 32.1635C22.5055 32.2925 22.6246 32.4835 22.7702 32.588C22.9159 32.6926 23.035 32.8598 23.035 32.9597C23.035 33.0595 23.2137 33.3076 23.4322 33.5107C23.6506 33.7138 23.8293 33.9466 23.8293 34.0278C23.8293 34.2202 25.2349 35.6196 25.4281 35.6196C25.5097 35.6196 25.7435 35.7976 25.9475 36.0151C26.1515 36.2325 26.4137 36.4105 26.5301 36.4105C26.6466 36.4105 26.7418 36.4698 26.7418 36.5423C26.7418 36.6148 26.8609 36.6741 27.0066 36.6741C27.1522 36.6741 27.2713 36.7334 27.2713 36.8059C27.2713 36.8784 27.3905 36.9377 27.5361 36.9377C27.6817 36.9377 27.8009 36.997 27.8009 37.0695C27.8009 37.142 27.9796 37.2013 28.198 37.2013C28.4165 37.2013 28.5952 37.2607 28.5952 37.3331C28.5952 37.4056 28.7739 37.465 28.9923 37.465C29.2108 37.465 29.3895 37.5243 29.3895 37.5968C29.3895 37.6693 29.6874 37.7286 30.0514 37.7286C30.4155 37.7286 30.7133 37.7879 30.7133 37.8604C30.7133 37.9428 31.5077 37.9922 32.8315 37.9922C34.1554 37.9922 34.9497 37.9428 34.9497 37.8604C34.9497 37.7879 35.188 37.7286 35.4792 37.7286C35.7705 37.7286 36.0088 37.6693 36.0088 37.5968C36.0088 37.5243 36.247 37.465 36.5383 37.465C36.8295 37.465 37.0678 37.4056 37.0678 37.3331C37.0678 37.2607 37.187 37.2013 37.3326 37.2013C37.4782 37.2013 37.5974 37.142 37.5974 37.0695C37.5974 36.997 37.7165 36.9377 37.8621 36.9377C38.0078 36.9377 38.1269 36.8784 38.1269 36.8059C38.1269 36.7334 38.2461 36.6741 38.3917 36.6741C38.5373 36.6741 38.6565 36.6148 38.6565 36.5423C38.6565 36.4698 38.7516 36.4105 38.8681 36.4105C38.9845 36.4105 39.2468 36.2325 39.4508 36.0151C39.6548 35.7976 39.8882 35.6196 39.9693 35.6196C40.1762 35.6196 42.0985 33.6843 42.0985 33.476C42.0985 33.3821 42.2176 33.2198 42.3632 33.1153C42.5089 33.0108 42.628 32.8198 42.628 32.6907C42.628 32.5618 42.6876 32.4562 42.7604 32.4562C42.8332 32.4562 42.8928 32.3507 42.8928 32.2218C42.8928 32.0927 43.0119 31.9017 43.1575 31.7972C43.313 31.6856 43.4223 31.4559 43.4223 31.2408C43.4223 31.0394 43.4819 30.8745 43.5547 30.8745C43.6275 30.8745 43.6871 30.7559 43.6871 30.6109C43.6871 30.4659 43.7467 30.3473 43.8195 30.3473C43.8923 30.3473 43.9519 30.1694 43.9519 29.9519C43.9519 29.7344 44.0114 29.5565 44.0842 29.5565C44.1571 29.5565 44.2166 29.3192 44.2166 29.0292C44.2166 28.7392 44.2762 28.502 44.349 28.502C44.4226 28.502 44.4814 28.1505 44.4814 27.7111C44.4814 27.2718 44.5402 26.9203 44.6138 26.9203C44.6961 26.9203 44.7462 26.1733 44.7462 24.9432C44.7462 23.713 44.6961 22.966 44.6138 22.966C44.5402 22.966 44.4814 22.6145 44.4814 22.1752C44.4814 21.7359 44.4226 21.3843 44.349 21.3843C44.2762 21.3843 44.2166 21.2064 44.2166 20.9889C44.2166 20.7714 44.1571 20.5935 44.0842 20.5935C44.0114 20.5935 43.9519 20.4156 43.9519 20.1981C43.9519 19.9806 43.8923 19.8026 43.8195 19.8026C43.7467 19.8026 43.6871 19.684 43.6871 19.539C43.6871 19.394 43.6275 19.2754 43.5547 19.2754C43.4819 19.2754 43.4223 19.1105 43.4223 18.9091C43.4223 18.694 43.313 18.4644 43.1575 18.3528C43.0119 18.2482 42.8928 18.0572 42.8928 17.9282C42.8928 17.7993 42.8332 17.6937 42.7604 17.6937C42.6876 17.6937 42.628 17.5881 42.628 17.4592C42.628 17.3302 42.5089 17.1392 42.3632 17.0347C42.2176 16.9301 42.0985 16.7679 42.0985 16.6742C42.0985 16.4518 39.9038 14.2667 39.6805 14.2667C39.5863 14.2667 39.4234 14.1481 39.3184 14.0031C39.2134 13.8581 39.0216 13.7395 38.892 13.7395C38.7625 13.7395 38.6565 13.6802 38.6565 13.6077C38.6565 13.5352 38.5373 13.4759 38.3917 13.4759C38.2461 13.4759 38.1269 13.4165 38.1269 13.344C38.1269 13.2715 38.0078 13.2122 37.8621 13.2122C37.7165 13.2122 37.5974 13.1529 37.5974 13.0804C37.5974 13.0079 37.4187 12.9486 37.2002 12.9486C36.9818 12.9486 36.8031 12.8893 36.8031 12.8168C36.8031 12.7443 36.6243 12.685 36.4059 12.685C36.1875 12.685 36.0088 12.6257 36.0088 12.5532C36.0088 12.4807 35.7109 12.4214 35.3468 12.4214C34.9828 12.4214 34.6849 12.3621 34.6849 12.2896C34.6849 12.2076 33.9347 12.1578 32.6991 12.1578C31.4636 12.1578 30.7133 12.2076 30.7133 12.2896ZM106.173 12.2896C106.173 12.3621 105.935 12.4214 105.643 12.4214C105.352 12.4214 105.114 12.4807 105.114 12.5532C105.114 12.6257 104.935 12.685 104.717 12.685C104.498 12.685 104.319 12.7443 104.319 12.8168C104.319 12.8893 104.2 12.9486 104.055 12.9486C103.909 12.9486 103.79 13.0079 103.79 13.0804C103.79 13.1529 103.671 13.2122 103.525 13.2122C103.38 13.2122 103.26 13.2715 103.26 13.344C103.26 13.4165 103.154 13.4759 103.025 13.4759C102.895 13.4759 102.703 13.5945 102.598 13.7395C102.493 13.8845 102.331 14.0031 102.237 14.0031C102.013 14.0031 99.5536 16.4522 99.5536 16.6743C99.5536 16.768 99.4345 16.9301 99.2888 17.0347C99.1432 17.1392 99.0241 17.3302 99.0241 17.4592C99.0241 17.5881 98.9645 17.6937 98.8917 17.6937C98.8189 17.6937 98.7593 17.8123 98.7593 17.9573C98.7593 18.1023 98.6997 18.2209 98.6269 18.2209C98.5541 18.2209 98.4945 18.3396 98.4945 18.4846C98.4945 18.6296 98.435 18.7482 98.3621 18.7482C98.2893 18.7482 98.2298 18.8668 98.2298 19.0118C98.2298 19.1568 98.1702 19.2754 98.0974 19.2754C98.0246 19.2754 97.965 19.4534 97.965 19.6708C97.965 19.8883 97.9054 20.0663 97.8326 20.0663C97.7598 20.0663 97.7002 20.2442 97.7002 20.4617C97.7002 20.6792 97.6406 20.8571 97.5678 20.8571C97.495 20.8571 97.4354 21.0944 97.4354 21.3843C97.4354 21.6743 97.3759 21.9116 97.3031 21.9116C97.2259 21.9116 97.1707 22.3509 97.1707 22.966C97.1707 23.5812 97.1155 24.0205 97.0383 24.0205C96.9598 24.0205 96.9059 24.5039 96.9059 25.2068C96.9059 25.9097 96.9598 26.3931 97.0383 26.3931C97.1139 26.3931 97.1707 26.7885 97.1707 27.3157C97.1707 27.843 97.2275 28.2384 97.3031 28.2384C97.3759 28.2384 97.4354 28.4756 97.4354 28.7656C97.4354 29.0556 97.495 29.2928 97.5678 29.2928C97.6406 29.2928 97.7002 29.4708 97.7002 29.6883C97.7002 29.9058 97.7598 30.0837 97.8326 30.0837C97.9054 30.0837 97.965 30.2616 97.965 30.4791C97.965 30.6966 98.0246 30.8745 98.0974 30.8745C98.1702 30.8745 98.2298 30.9932 98.2298 31.1382C98.2298 31.2831 98.2893 31.4018 98.3621 31.4018C98.435 31.4018 98.4945 31.5204 98.4945 31.6654C98.4945 31.8104 98.5541 31.929 98.6269 31.929C98.6997 31.929 98.7593 32.0476 98.7593 32.1926C98.7593 32.3376 98.8189 32.4562 98.8917 32.4562C98.9645 32.4562 99.0241 32.551 99.0241 32.667C99.0241 32.7829 99.2028 33.044 99.4212 33.2471C99.6397 33.4502 99.8184 33.6825 99.8184 33.7631C99.8184 33.969 102.028 36.1469 102.236 36.1469C102.331 36.1469 102.493 36.2655 102.598 36.4105C102.703 36.5555 102.895 36.6741 103.025 36.6741C103.154 36.6741 103.26 36.7334 103.26 36.8059C103.26 36.8784 103.38 36.9377 103.525 36.9377C103.671 36.9377 103.79 36.997 103.79 37.0695C103.79 37.142 103.909 37.2013 104.055 37.2013C104.2 37.2013 104.319 37.2607 104.319 37.3331C104.319 37.4056 104.498 37.465 104.717 37.465C104.935 37.465 105.114 37.5243 105.114 37.5968C105.114 37.6693 105.352 37.7286 105.643 37.7286C105.935 37.7286 106.173 37.7879 106.173 37.8604C106.173 37.942 106.879 37.9922 108.026 37.9922C109.174 37.9922 109.88 37.942 109.88 37.8604C109.88 37.7879 110.118 37.7286 110.409 37.7286C110.7 37.7286 110.939 37.6693 110.939 37.5968C110.939 37.5243 111.058 37.465 111.204 37.465C111.349 37.465 111.468 37.4056 111.468 37.3331C111.468 37.2607 111.587 37.2013 111.733 37.2013C111.879 37.2013 111.998 37.142 111.998 37.0695C111.998 36.997 112.09 36.9377 112.204 36.9377C112.317 36.9377 112.76 36.5818 113.189 36.1469C113.955 35.3704 114.381 35.1594 114.381 35.5566C114.381 35.8176 115.771 37.2013 116.033 37.2013C116.143 37.2013 116.234 37.2607 116.234 37.3331C116.234 37.4122 116.764 37.465 117.558 37.465C118.352 37.465 118.882 37.4122 118.882 37.3331C118.882 37.2607 118.973 37.2013 119.084 37.2013C119.347 37.2013 120.47 36.0824 120.47 35.8208C120.47 35.7102 120.53 35.6196 120.603 35.6196C120.676 35.6196 120.735 35.4417 120.735 35.2242C120.735 35.0067 120.795 34.8288 120.868 34.8288C120.955 34.8288 121 31.4897 121 25.075C121 18.6603 120.955 15.3212 120.868 15.3212C120.795 15.3212 120.735 15.1432 120.735 14.9257C120.735 14.7083 120.676 14.5303 120.603 14.5303C120.53 14.5303 120.47 14.4398 120.47 14.3292C120.47 13.9892 119.325 12.9486 118.951 12.9486C118.768 12.9486 118.617 12.8893 118.617 12.8168C118.617 12.7386 118.132 12.685 117.426 12.685C116.72 12.685 116.234 12.7386 116.234 12.8168C116.234 12.8893 116.128 12.9486 115.999 12.9486C115.869 12.9486 115.677 13.0672 115.572 13.2122C115.467 13.3572 115.275 13.4759 115.146 13.4759C115.008 13.4759 114.91 13.5734 114.91 13.7103C114.91 13.8394 114.791 14.0304 114.646 14.1349C114.5 14.2394 114.381 14.4304 114.381 14.5594C114.381 15.0052 113.967 14.7904 113.057 13.8713C112.554 13.3638 112.051 12.9486 111.938 12.9486C111.825 12.9486 111.733 12.8893 111.733 12.8168C111.733 12.7443 111.554 12.685 111.336 12.685C111.117 12.685 110.939 12.6257 110.939 12.5532C110.939 12.4807 110.7 12.4214 110.409 12.4214C110.118 12.4214 109.88 12.3621 109.88 12.2896C109.88 12.208 109.174 12.1578 108.026 12.1578C106.879 12.1578 106.173 12.208 106.173 12.2896ZM49.512 12.8168C49.512 12.8893 49.3929 12.9486 49.2473 12.9486C49.1016 12.9486 48.9825 13.0079 48.9825 13.0804C48.9825 13.1529 48.8911 13.2122 48.7795 13.2122C48.6678 13.2122 48.3699 13.4179 48.1176 13.6692C47.8652 13.9204 47.6586 14.217 47.6586 14.3283C47.6586 14.4394 47.5991 14.5303 47.5263 14.5303C47.4468 14.5303 47.3939 15.0575 47.3939 15.8484C47.3939 16.6392 47.4468 17.1665 47.5263 17.1665C47.5991 17.1665 47.6586 17.3444 47.6586 17.5619C47.6586 17.7794 47.7182 17.9573 47.791 17.9573C47.8638 17.9573 47.9234 18.076 47.9234 18.2209C47.9234 18.3659 47.983 18.4846 48.0558 18.4846C48.1286 18.4846 48.1882 18.6625 48.1882 18.88C48.1882 19.0975 48.2478 19.2754 48.3206 19.2754C48.3934 19.2754 48.453 19.394 48.453 19.539C48.453 19.684 48.5125 19.8026 48.5853 19.8026C48.6582 19.8026 48.7177 19.9806 48.7177 20.1981C48.7177 20.4156 48.7773 20.5935 48.8501 20.5935C48.9229 20.5935 48.9825 20.7121 48.9825 20.8571C48.9825 21.0021 49.0421 21.1207 49.1149 21.1207C49.1877 21.1207 49.2473 21.2394 49.2473 21.3843C49.2473 21.5293 49.3068 21.648 49.3796 21.648C49.4525 21.648 49.512 21.8259 49.512 22.0434C49.512 22.2609 49.5716 22.4388 49.6444 22.4388C49.7172 22.4388 49.7768 22.5574 49.7768 22.7024C49.7768 22.8474 49.8364 22.966 49.9092 22.966C49.982 22.966 50.0416 23.144 50.0416 23.3615C50.0416 23.579 50.1011 23.7569 50.174 23.7569C50.2468 23.7569 50.3063 23.8755 50.3063 24.0205C50.3063 24.1655 50.3659 24.2841 50.4387 24.2841C50.5115 24.2841 50.5711 24.4621 50.5711 24.6796C50.5711 24.897 50.6307 25.075 50.7035 25.075C50.7763 25.075 50.8359 25.1936 50.8359 25.3386C50.8359 25.4836 50.8955 25.6022 50.9683 25.6022C51.0411 25.6022 51.1007 25.7208 51.1007 25.8658C51.1007 26.0108 51.1602 26.1294 51.233 26.1294C51.3059 26.1294 51.3654 26.3074 51.3654 26.5249C51.3654 26.7424 51.425 26.9203 51.4978 26.9203C51.5706 26.9203 51.6302 27.0389 51.6302 27.1839C51.6302 27.3289 51.6898 27.4475 51.7626 27.4475C51.8354 27.4475 51.895 27.6255 51.895 27.843C51.895 28.0604 51.9545 28.2384 52.0274 28.2384C52.1002 28.2384 52.1597 28.357 52.1597 28.502C52.1597 28.647 52.2193 28.7656 52.2921 28.7656C52.3649 28.7656 52.4245 28.8842 52.4245 29.0292C52.4245 29.1742 52.4841 29.2928 52.5569 29.2928C52.6297 29.2928 52.6893 29.4708 52.6893 29.6883C52.6893 29.9058 52.7489 30.0837 52.8217 30.0837C52.8945 30.0837 52.954 30.2023 52.954 30.3473C52.954 30.4923 53.0136 30.6109 53.0864 30.6109C53.1592 30.6109 53.2188 30.7889 53.2188 31.0063C53.2188 31.2238 53.2784 31.4018 53.3512 31.4018C53.424 31.4018 53.4836 31.5204 53.4836 31.6654C53.4836 31.8104 53.5432 31.929 53.616 31.929C53.6888 31.929 53.7484 32.0476 53.7484 32.1926C53.7484 32.3376 53.8079 32.4562 53.8807 32.4562C53.9536 32.4562 54.0131 32.6342 54.0131 32.8517C54.0131 33.0691 54.0727 33.2471 54.1455 33.2471C54.2183 33.2471 54.2779 33.3657 54.2779 33.5107C54.2779 33.6557 54.3375 33.7743 54.4103 33.7743C54.4831 33.7743 54.5427 33.9523 54.5427 34.1697C54.5427 34.3872 54.6022 34.5652 54.6751 34.5652C54.7479 34.5652 54.8074 34.8024 54.8074 35.0924C54.8074 35.3824 54.7479 35.6196 54.6751 35.6196C54.6022 35.6196 54.5427 35.7383 54.5427 35.8833C54.5427 36.0282 54.4831 36.1469 54.4103 36.1469C54.3375 36.1469 54.2779 36.2655 54.2779 36.4105C54.2779 36.5555 54.2183 36.6741 54.1455 36.6741C54.0727 36.6741 54.0131 36.7927 54.0131 36.9377C54.0131 37.0827 53.9536 37.2013 53.8807 37.2013C53.8079 37.2013 53.7484 37.3793 53.7484 37.5968C53.7484 37.8142 53.6888 37.9922 53.616 37.9922C53.5432 37.9922 53.4836 38.1108 53.4836 38.2558C53.4836 38.4008 53.424 38.5194 53.3512 38.5194C53.2784 38.5194 53.2188 38.638 53.2188 38.783C53.2188 38.928 53.1592 39.0467 53.0864 39.0467C53.0136 39.0467 52.954 39.1653 52.954 39.3103C52.954 39.4553 52.8945 39.5739 52.8217 39.5739C52.7489 39.5739 52.6893 39.7518 52.6893 39.9693C52.6893 40.1868 52.6297 40.3647 52.5569 40.3647C52.4841 40.3647 52.4245 40.4834 52.4245 40.6284C52.4245 40.7733 52.3649 40.892 52.2921 40.892C52.2193 40.892 52.1597 41.0699 52.1597 41.2874C52.1597 41.5049 52.1002 41.6828 52.0274 41.6828C51.9545 41.6828 51.895 41.8014 51.895 41.9464C51.895 42.0914 51.8354 42.2101 51.7626 42.2101C51.6898 42.2101 51.6302 42.4473 51.6302 42.7373C51.6302 43.0273 51.5706 43.2645 51.4978 43.2645C51.4206 43.2645 51.3654 43.7038 51.3654 44.319C51.3654 44.9341 51.4206 45.3735 51.4978 45.3735C51.5706 45.3735 51.6302 45.4921 51.6302 45.6371C51.6302 45.7821 51.6898 45.9007 51.7626 45.9007C51.8354 45.9007 51.895 45.9923 51.895 46.1043C51.895 46.3681 52.4846 46.9551 52.7495 46.9551C52.862 46.9551 52.954 47.0145 52.954 47.087C52.954 47.1595 53.0732 47.2188 53.2188 47.2188C53.3644 47.2188 53.4836 47.2781 53.4836 47.3506C53.4836 47.4297 54.0131 47.4824 54.8074 47.4824C55.6018 47.4824 56.1313 47.4297 56.1313 47.3506C56.1313 47.2781 56.2222 47.2188 56.3333 47.2188C56.5961 47.2188 57.7199 46.0998 57.7199 45.8382C57.7199 45.7276 57.7795 45.6371 57.8523 45.6371C57.9251 45.6371 57.9847 45.5184 57.9847 45.3735C57.9847 45.2285 58.0443 45.1098 58.1171 45.1098C58.1899 45.1098 58.2495 44.9912 58.2495 44.8462C58.2495 44.7012 58.309 44.5826 58.3818 44.5826C58.4546 44.5826 58.5142 44.464 58.5142 44.319C58.5142 44.174 58.5738 44.0554 58.6466 44.0554C58.7194 44.0554 58.779 43.9367 58.779 43.7918C58.779 43.6468 58.8386 43.5281 58.9114 43.5281C58.9842 43.5281 59.0438 43.3502 59.0438 43.1327C59.0438 42.9152 59.1033 42.7373 59.1761 42.7373C59.249 42.7373 59.3085 42.6187 59.3085 42.4737C59.3085 42.3287 59.3681 42.2101 59.4409 42.2101C59.5137 42.2101 59.5733 42.0914 59.5733 41.9464C59.5733 41.8014 59.6329 41.6828 59.7057 41.6828C59.7785 41.6828 59.8381 41.5049 59.8381 41.2874C59.8381 41.0699 59.8976 40.892 59.9705 40.892C60.0433 40.892 60.1028 40.7733 60.1028 40.6284C60.1028 40.4834 60.1624 40.3647 60.2352 40.3647C60.308 40.3647 60.3676 40.2461 60.3676 40.1011C60.3676 39.9561 60.4272 39.8375 60.5 39.8375C60.5728 39.8375 60.6324 39.6596 60.6324 39.4421C60.6324 39.2246 60.692 39.0467 60.7648 39.0467C60.8376 39.0467 60.8972 38.928 60.8972 38.783C60.8972 38.638 60.9567 38.5194 61.0295 38.5194C61.1024 38.5194 61.1619 38.3415 61.1619 38.124C61.1619 37.9065 61.2215 37.7286 61.2943 37.7286C61.3671 37.7286 61.4267 37.6099 61.4267 37.465C61.4267 37.32 61.4863 37.2013 61.5591 37.2013C61.6319 37.2013 61.6915 37.0827 61.6915 36.9377C61.6915 36.7927 61.751 36.6741 61.8239 36.6741C61.8967 36.6741 61.9562 36.4962 61.9562 36.2787C61.9562 36.0612 62.0158 35.8833 62.0886 35.8833C62.1614 35.8833 62.221 35.7646 62.221 35.6196C62.221 35.4746 62.2806 35.356 62.3534 35.356C62.4262 35.356 62.4858 35.2374 62.4858 35.0924C62.4858 34.9474 62.5453 34.8288 62.6182 34.8288C62.691 34.8288 62.7505 34.6508 62.7505 34.4334C62.7505 34.2159 62.8101 34.0379 62.8829 34.0379C62.9557 34.0379 63.0153 33.9193 63.0153 33.7743C63.0153 33.6293 63.0749 33.5107 63.1477 33.5107C63.2205 33.5107 63.2801 33.3921 63.2801 33.2471C63.2801 33.1021 63.3397 32.9835 63.4125 32.9835C63.4853 32.9835 63.5449 32.8055 63.5449 32.588C63.5449 32.3706 63.6044 32.1926 63.6772 32.1926C63.7501 32.1926 63.8096 32.074 63.8096 31.929C63.8096 31.784 63.8692 31.6654 63.942 31.6654C64.0148 31.6654 64.0744 31.5468 64.0744 31.4018C64.0744 31.2568 64.134 31.1382 64.2068 31.1382C64.2796 31.1382 64.3392 30.9602 64.3392 30.7427C64.3392 30.5252 64.3987 30.3473 64.4716 30.3473C64.5444 30.3473 64.6039 30.2287 64.6039 30.0837C64.6039 29.9387 64.6635 29.8201 64.7363 29.8201C64.8091 29.8201 64.8687 29.6421 64.8687 29.4247C64.8687 29.2072 64.9283 29.0292 65.0011 29.0292C65.0739 29.0292 65.1335 28.9106 65.1335 28.7656C65.1335 28.6206 65.1931 28.502 65.2659 28.502C65.3387 28.502 65.3982 28.3834 65.3982 28.2384C65.3982 28.0934 65.4578 27.9748 65.5306 27.9748C65.6034 27.9748 65.663 27.7968 65.663 27.5793C65.663 27.3619 65.7226 27.1839 65.7954 27.1839C65.8682 27.1839 65.9278 27.0653 65.9278 26.9203C65.9278 26.7753 65.9874 26.6567 66.0602 26.6567C66.133 26.6567 66.1926 26.538 66.1926 26.3931C66.1926 26.2481 66.2521 26.1294 66.3249 26.1294C66.3978 26.1294 66.4573 25.9515 66.4573 25.734C66.4573 25.5165 66.5169 25.3386 66.5897 25.3386C66.6625 25.3386 66.7221 25.22 66.7221 25.075C66.7221 24.93 66.7817 24.8114 66.8545 24.8114C66.9273 24.8114 66.9869 24.6927 66.9869 24.5477C66.9869 24.4028 67.0464 24.2841 67.1193 24.2841C67.1921 24.2841 67.2516 24.1062 67.2516 23.8887C67.2516 23.6712 67.3112 23.4933 67.384 23.4933C67.4568 23.4933 67.5164 23.3747 67.5164 23.2297C67.5164 23.0847 67.576 22.966 67.6488 22.966C67.7216 22.966 67.7812 22.8474 67.7812 22.7024C67.7812 22.5574 67.8408 22.4388 67.9136 22.4388C67.9864 22.4388 68.046 22.2609 68.046 22.0434C68.046 21.8259 68.1055 21.648 68.1783 21.648C68.2511 21.648 68.3107 21.5293 68.3107 21.3843C68.3107 21.2394 68.3703 21.1207 68.4431 21.1207C68.5159 21.1207 68.5755 21.0021 68.5755 20.8571C68.5755 20.7121 68.6351 20.5935 68.7079 20.5935C68.7807 20.5935 68.8403 20.4156 68.8403 20.1981C68.8403 19.9806 68.8998 19.8026 68.9726 19.8026C69.0455 19.8026 69.105 19.684 69.105 19.539C69.105 19.394 69.1646 19.2754 69.2374 19.2754C69.3102 19.2754 69.3698 19.0975 69.3698 18.88C69.3698 18.6625 69.4294 18.4846 69.5022 18.4846C69.575 18.4846 69.6346 18.3066 69.6346 18.0891C69.6346 17.8717 69.6941 17.6937 69.767 17.6937C69.8398 17.6937 69.8993 17.4565 69.8993 17.1665C69.8993 16.8765 69.9589 16.6392 70.0317 16.6392C70.1045 16.6392 70.1641 16.402 70.1641 16.112C70.1641 15.822 70.1045 15.5848 70.0317 15.5848C69.9589 15.5848 69.8993 15.3475 69.8993 15.0575C69.8993 14.7676 69.8398 14.5303 69.767 14.5303C69.6941 14.5303 69.6346 14.4394 69.6346 14.3283C69.6346 14.0658 68.7772 13.2122 68.5137 13.2122C68.4021 13.2122 68.3107 13.1529 68.3107 13.0804C68.3107 13.0079 68.1916 12.9486 68.046 12.9486C67.9003 12.9486 67.7812 12.8893 67.7812 12.8168C67.7812 12.7386 67.2957 12.685 66.5897 12.685C65.8837 12.685 65.3982 12.7386 65.3982 12.8168C65.3982 12.8893 65.3076 12.9486 65.1968 12.9486C64.9346 12.9486 63.5449 14.3323 63.5449 14.5933C63.5449 14.7036 63.4853 14.7939 63.4125 14.7939C63.3397 14.7939 63.2801 14.9126 63.2801 15.0575C63.2801 15.2025 63.2205 15.3212 63.1477 15.3212C63.0749 15.3212 63.0153 15.4398 63.0153 15.5848C63.0153 15.7298 62.9557 15.8484 62.8829 15.8484C62.8101 15.8484 62.7505 15.967 62.7505 16.112C62.7505 16.257 62.691 16.3756 62.6182 16.3756C62.5453 16.3756 62.4858 16.5536 62.4858 16.7711C62.4858 16.9885 62.4262 17.1665 62.3534 17.1665C62.2806 17.1665 62.221 17.2851 62.221 17.4301C62.221 17.5751 62.1614 17.6937 62.0886 17.6937C62.0158 17.6937 61.9562 17.8717 61.9562 18.0891C61.9562 18.3066 61.8967 18.4846 61.8239 18.4846C61.751 18.4846 61.6915 18.6032 61.6915 18.7482C61.6915 18.8932 61.6319 19.0118 61.5591 19.0118C61.4863 19.0118 61.4267 19.1897 61.4267 19.4072C61.4267 19.6247 61.3671 19.8026 61.2943 19.8026C61.2215 19.8026 61.1619 19.9213 61.1619 20.0663C61.1619 20.2113 61.1024 20.3299 61.0295 20.3299C60.9567 20.3299 60.8972 20.5078 60.8972 20.7253C60.8972 20.9428 60.8376 21.1207 60.7648 21.1207C60.692 21.1207 60.6324 21.2394 60.6324 21.3843C60.6324 21.5293 60.5728 21.648 60.5 21.648C60.4272 21.648 60.3676 21.8259 60.3676 22.0434C60.3676 22.2609 60.308 22.4388 60.2352 22.4388C60.1624 22.4388 60.1028 22.5574 60.1028 22.7024C60.1028 22.8474 60.0433 22.966 59.9705 22.966C59.8976 22.966 59.8381 23.144 59.8381 23.3615C59.8381 23.579 59.7785 23.7569 59.7057 23.7569C59.6329 23.7569 59.5733 23.8755 59.5733 24.0205C59.5733 24.1655 59.5137 24.2841 59.4409 24.2841C59.3681 24.2841 59.3085 24.4621 59.3085 24.6796C59.3085 24.897 59.249 25.075 59.1761 25.075C59.1033 25.075 59.0438 25.1936 59.0438 25.3386C59.0438 25.4836 58.9842 25.6022 58.9114 25.6022C58.8386 25.6022 58.779 25.7208 58.779 25.8658C58.779 26.0108 58.745 26.1294 58.7034 26.1294C58.548 26.1294 58.2495 25.7455 58.2495 25.5457C58.2495 25.4318 58.1899 25.3386 58.1171 25.3386C58.0443 25.3386 57.9847 25.1607 57.9847 24.9432C57.9847 24.7257 57.9251 24.5477 57.8523 24.5477C57.7795 24.5477 57.7199 24.3698 57.7199 24.1523C57.7199 23.9348 57.6603 23.7569 57.5875 23.7569C57.5147 23.7569 57.4551 23.6383 57.4551 23.4933C57.4551 23.3483 57.3956 23.2297 57.3228 23.2297C57.2499 23.2297 57.1904 23.0517 57.1904 22.8342C57.1904 22.6168 57.1308 22.4388 57.058 22.4388C56.9852 22.4388 56.9256 22.3202 56.9256 22.1752C56.9256 22.0302 56.866 21.9116 56.7932 21.9116C56.7204 21.9116 56.6608 21.7336 56.6608 21.5162C56.6608 21.2987 56.6013 21.1207 56.5284 21.1207C56.4556 21.1207 56.3961 20.9428 56.3961 20.7253C56.3961 20.5078 56.3365 20.3299 56.2637 20.3299C56.1909 20.3299 56.1313 20.2113 56.1313 20.0663C56.1313 19.9213 56.0717 19.8026 55.9989 19.8026C55.9261 19.8026 55.8665 19.6247 55.8665 19.4072C55.8665 19.1897 55.8069 19.0118 55.7341 19.0118C55.6613 19.0118 55.6018 18.8339 55.6018 18.6164C55.6018 18.3989 55.5422 18.2209 55.4694 18.2209C55.3966 18.2209 55.337 18.1023 55.337 17.9573C55.337 17.8123 55.2774 17.6937 55.2046 17.6937C55.1318 17.6937 55.0722 17.5158 55.0722 17.2983C55.0722 17.0808 55.0126 16.9029 54.9398 16.9029C54.867 16.9029 54.8074 16.7842 54.8074 16.6392C54.8074 16.4943 54.7479 16.3756 54.6751 16.3756C54.6022 16.3756 54.5427 16.1977 54.5427 15.9802C54.5427 15.7627 54.4831 15.5848 54.4103 15.5848C54.3375 15.5848 54.2779 15.4199 54.2779 15.2185C54.2779 15.0034 54.1685 14.7738 54.0131 14.6621C53.8675 14.5576 53.7484 14.3943 53.7484 14.2991C53.7484 14.0588 52.8753 13.2122 52.6275 13.2122C52.5159 13.2122 52.4245 13.1529 52.4245 13.0804C52.4245 13.0079 52.3054 12.9486 52.1597 12.9486C52.0141 12.9486 51.895 12.8893 51.895 12.8168C51.895 12.7386 51.4095 12.685 50.7035 12.685C49.9975 12.685 49.512 12.7386 49.512 12.8168ZM32.8315 18.88C32.8315 18.9533 33.1846 19.0118 33.6258 19.0118C34.0671 19.0118 34.4201 19.0703 34.4201 19.1436C34.4201 19.2161 34.5262 19.2754 34.6556 19.2754C34.7852 19.2754 34.9771 19.394 35.0821 19.539C35.187 19.684 35.3511 19.8026 35.4466 19.8026C35.6725 19.8026 36.5383 20.6647 36.5383 20.8895C36.5383 20.9847 36.6574 21.148 36.8031 21.2525C36.9585 21.3642 37.0678 21.5938 37.0678 21.8089C37.0678 22.0103 37.1274 22.1752 37.2002 22.1752C37.273 22.1752 37.3326 22.3531 37.3326 22.5706C37.3326 22.7881 37.3922 22.966 37.465 22.966C37.5477 22.966 37.5974 23.7569 37.5974 25.075C37.5974 26.3931 37.5477 27.1839 37.465 27.1839C37.3922 27.1839 37.3326 27.3619 37.3326 27.5793C37.3326 27.7968 37.273 27.9748 37.2002 27.9748C37.1274 27.9748 37.0678 28.0934 37.0678 28.2384C37.0678 28.3834 37.0083 28.502 36.9354 28.502C36.8626 28.502 36.8031 28.6206 36.8031 28.7656C36.8031 28.9106 36.7435 29.0292 36.6707 29.0292C36.5979 29.0292 36.5383 29.1198 36.5383 29.2304C36.5383 29.492 35.4145 30.6109 35.1517 30.6109C35.0406 30.6109 34.9497 30.6702 34.9497 30.7427C34.9497 30.8152 34.8305 30.8745 34.6849 30.8745C34.5393 30.8745 34.4201 30.9339 34.4201 31.0063C34.4201 31.0788 34.1818 31.1382 33.8906 31.1382C33.5993 31.1382 33.3611 31.1975 33.3611 31.27C33.3611 31.3425 33.1228 31.4018 32.8315 31.4018C32.5403 31.4018 32.302 31.3425 32.302 31.27C32.302 31.1975 32.0041 31.1382 31.64 31.1382C31.276 31.1382 30.9781 31.0788 30.9781 31.0063C30.9781 30.9339 30.8721 30.8745 30.7426 30.8745C30.613 30.8745 30.4212 30.7559 30.3162 30.6109C30.2112 30.4659 30.0464 30.3473 29.95 30.3473C29.7227 30.3473 29.1247 29.7519 29.1247 29.5256C29.1247 29.4297 29.0056 29.2656 28.86 29.161C28.7143 29.0565 28.5952 28.8655 28.5952 28.7365C28.5952 28.6076 28.5356 28.502 28.4628 28.502C28.39 28.502 28.3304 28.3241 28.3304 28.1066C28.3304 27.8891 28.2708 27.7111 28.198 27.7111C28.1252 27.7111 28.0656 27.5332 28.0656 27.3157C28.0656 27.0982 28.0061 26.9203 27.9333 26.9203C27.8513 26.9203 27.8009 26.2174 27.8009 25.075C27.8009 23.9326 27.8513 23.2297 27.9333 23.2297C28.0061 23.2297 28.0656 23.0517 28.0656 22.8342C28.0656 22.6168 28.1252 22.4388 28.198 22.4388C28.2708 22.4388 28.3304 22.2609 28.3304 22.0434C28.3304 21.8259 28.39 21.648 28.4628 21.648C28.5356 21.648 28.5952 21.5532 28.5952 21.4372C28.5952 21.3213 28.7739 21.0602 28.9923 20.8571C29.2108 20.654 29.3895 20.4183 29.3895 20.3334C29.3895 20.124 29.7268 19.8026 29.9466 19.8026C30.0449 19.8026 30.2112 19.684 30.3162 19.539C30.4283 19.3843 30.6589 19.2754 30.875 19.2754C31.0773 19.2754 31.2429 19.2161 31.2429 19.1436C31.2429 19.0711 31.5408 19.0118 31.9048 19.0118C32.2689 19.0118 32.5667 18.9525 32.5667 18.88C32.5667 18.8075 32.6263 18.7482 32.6991 18.7482C32.7719 18.7482 32.8315 18.8075 32.8315 18.88ZM110.674 19.1436C110.674 19.2161 110.793 19.2754 110.939 19.2754C111.084 19.2754 111.204 19.3347 111.204 19.4072C111.204 19.4797 111.294 19.539 111.406 19.539C111.652 19.539 112.792 20.6504 112.792 20.8905C112.792 20.9851 112.911 21.148 113.057 21.2525C113.212 21.3642 113.322 21.5938 113.322 21.8089C113.322 22.0103 113.381 22.1752 113.454 22.1752C113.527 22.1752 113.586 22.3531 113.586 22.5706C113.586 22.7881 113.646 22.966 113.719 22.966C113.802 22.966 113.851 23.7569 113.851 25.075C113.851 26.3931 113.802 27.1839 113.719 27.1839C113.646 27.1839 113.586 27.3619 113.586 27.5793C113.586 27.7968 113.527 27.9748 113.454 27.9748C113.381 27.9748 113.322 28.0934 113.322 28.2384C113.322 28.3834 113.262 28.502 113.189 28.502C113.116 28.502 113.057 28.6206 113.057 28.7656C113.057 28.9106 112.997 29.0292 112.925 29.0292C112.852 29.0292 112.792 29.1198 112.792 29.2304C112.792 29.492 111.668 30.6109 111.406 30.6109C111.294 30.6109 111.204 30.6702 111.204 30.7427C111.204 30.8152 111.084 30.8745 110.939 30.8745C110.793 30.8745 110.674 30.9339 110.674 31.0063C110.674 31.0788 110.436 31.1382 110.144 31.1382C109.853 31.1382 109.615 31.1975 109.615 31.27C109.615 31.3425 109.377 31.4018 109.085 31.4018C108.794 31.4018 108.556 31.3425 108.556 31.27C108.556 31.1975 108.258 31.1382 107.894 31.1382C107.53 31.1382 107.232 31.0788 107.232 31.0063C107.232 30.9339 107.126 30.8745 106.996 30.8745C106.867 30.8745 106.675 30.7559 106.57 30.6109C106.465 30.4659 106.3 30.3473 106.204 30.3473C105.977 30.3473 105.379 29.7519 105.379 29.5256C105.379 29.4297 105.259 29.2656 105.114 29.161C104.968 29.0565 104.849 28.8655 104.849 28.7365C104.849 28.6076 104.789 28.502 104.717 28.502C104.644 28.502 104.584 28.3241 104.584 28.1066C104.584 27.8891 104.525 27.7111 104.452 27.7111C104.379 27.7111 104.319 27.4739 104.319 27.1839C104.319 26.8939 104.26 26.6567 104.187 26.6567C104.106 26.6567 104.055 25.9976 104.055 24.9432C104.055 23.8887 104.106 23.2297 104.187 23.2297C104.26 23.2297 104.319 23.0517 104.319 22.8342C104.319 22.6168 104.379 22.4388 104.452 22.4388C104.525 22.4388 104.584 22.2609 104.584 22.0434C104.584 21.8259 104.644 21.648 104.717 21.648C104.789 21.648 104.849 21.5532 104.849 21.4372C104.849 21.3213 105.028 21.0602 105.246 20.8571C105.465 20.654 105.643 20.3929 105.643 20.277C105.643 20.161 105.739 20.0663 105.855 20.0663C105.971 20.0663 106.234 19.8883 106.438 19.6708C106.666 19.4277 106.941 19.2754 107.153 19.2754C107.342 19.2754 107.497 19.2161 107.497 19.1436C107.497 19.0631 108.115 19.0118 109.085 19.0118C110.056 19.0118 110.674 19.0631 110.674 19.1436Z" fill="#2783FE"/>
<path fill-rule="evenodd" clip-rule="evenodd" d="M81.417 24.3845C81.1522 23.0225 80.9933 20.0612 82.476 19.1122C84.3294 17.9259 88.301 17.2669 90.8163 15.158C93.3316 13.049 93.9935 10.9401 92.8021 9.75383C91.6106 8.56755 88.1686 10.0174 86.4476 12.39C84.7266 14.7625 82.2112 18.1895 81.2846 19.244C80.3579 20.2985 80.3579 20.0349 80.2255 19.9031C80.0931 19.7712 79.6959 18.3214 80.4902 17.0033C81.2846 15.6852 80.8874 14.8943 80.2255 14.6307C79.5635 14.3671 78.372 15.4216 78.6368 17.0033C78.9016 18.585 79.1663 18.585 78.9016 18.9804C78.6368 19.3758 77.8425 17.9259 77.8425 16.8715C77.8425 11.9946 80.4902 8.69935 80.2255 5.27233C80.2255 3.51489 79.2987 0 75.592 0C70.9585 0 71.2232 4.87691 71.2232 5.93137C71.2232 9.09477 76.3863 13.7081 76.7834 18.0577C77.0923 19.9031 77.3659 24.78 75.9891 29.5251C74.2681 35.4564 73.001 38.8834 73.3414 41.256C73.6818 43.6285 78.1073 49.9553 81.0197 41.5196C81.2845 40.3773 81.6552 37.539 81.0197 35.3246C80.2255 32.5566 78.6368 31.8976 79.4311 30.1841C80.2255 28.4706 81.4169 28.866 82.7407 30.1841C84.0646 31.5022 86.0504 35.72 88.5657 37.1699C91.081 38.6198 92.802 39.0153 93.5963 38.0926C94.3906 37.1699 94.2582 34.7974 92.1401 33.6111C90.0219 32.4248 88.0361 32.5566 85.1237 30.5795C82.7937 28.9978 81.6817 25.7905 81.417 24.3845ZM77.9749 3.03159C77.4453 1.66078 76.0774 1.31808 75.4596 1.31808C75.3713 1.36202 75.3801 1.60806 76.1215 2.24074C77.0482 3.03159 77.8425 4.87691 77.9749 5.27233C78.0808 5.58867 78.372 5.93137 78.5044 6.06318C78.5485 5.62382 78.5044 4.4024 77.9749 3.03159ZM89.4924 10.4129C88.5392 10.7292 88.0361 11.7749 87.9038 12.2582C87.992 12.346 88.2215 12.4163 88.4333 11.9946C88.6981 11.4673 90.1543 10.9401 90.8163 10.8083C91.4782 10.6765 92.2725 10.4129 91.8753 10.281C91.4782 10.1492 90.6839 10.0174 89.4924 10.4129ZM92.5372 35.3246C92.0077 34.481 90.9045 34.2702 90.4191 34.2702C90.0219 34.402 90.2867 34.5338 90.4191 34.5338C90.5515 34.5338 91.6105 35.061 92.0077 36.1155C92.3254 36.959 92.9344 37.2578 93.1992 37.3017C93.1992 36.9942 93.0668 36.1682 92.5372 35.3246Z" fill="#F48534"/>
<path d="M93.8611 9.09477C93.7287 8.78722 93.7552 7.82941 94.9202 6.45861C96.3764 4.7451 97.4355 5.40414 97.7003 5.93137C97.965 6.45861 97.965 8.04031 96.7736 8.56754C95.5821 9.09477 94.9201 9.88562 93.8611 9.09477Z" fill="#F48534"/>
</svg>
