<svg width="282" height="39" viewBox="0 0 282 39" fill="none" xmlns="http://www.w3.org/2000/svg">
<path d="M281.4 19.0267C281.4 29.467 272.911 38.0534 262.373 38.0534C251.933 38.0534 243.347 29.467 243.347 19.0267C243.347 8.58641 251.835 0 262.276 0C272.911 0 281.4 8.58641 281.4 19.0267Z" fill="#F9B50B"/>
<path d="M255.933 19.1243C255.933 17.7583 255.738 16.3922 255.543 15.1238H243.834C243.932 14.4408 244.127 13.8553 244.322 13.0748H254.763C254.567 12.3917 254.275 11.7087 253.982 11.0257H245.103C245.396 10.3427 245.786 9.75728 246.176 8.9767H252.909C252.518 8.29369 252.031 7.61068 251.445 6.92767H247.737C248.323 6.24466 248.908 5.65922 249.689 4.97621C246.371 1.85388 241.883 0 236.907 0C226.564 0.292718 217.978 8.58641 217.978 19.0267C217.978 29.467 226.466 38.0534 237.004 38.0534C241.981 38.0534 246.371 36.1019 249.786 33.0772C250.469 32.4917 251.055 31.8087 251.738 31.0282H247.835C247.347 30.4427 246.859 29.7597 246.469 29.0767H253.104C253.494 28.4913 253.884 27.8083 254.177 27.0277H245.298C245.005 26.4422 244.713 25.7592 244.517 24.9786H254.958C255.543 23.2223 255.933 21.2709 255.933 19.1243Z" fill="#C8191C"/>
<path d="M243.737 23.9055L244.03 22.1492C243.932 22.1492 243.737 22.2468 243.542 22.2468C242.859 22.2468 242.761 21.8565 242.859 21.6613L243.444 18.1487H244.518L244.81 16.1972H243.835L244.03 15.0264H241.981C241.981 15.0264 240.81 21.6613 240.81 22.4419C240.81 23.6128 241.493 24.1982 242.468 24.1982C243.054 24.1982 243.542 24.0031 243.737 23.9055Z" fill="white"/>
<path d="M244.42 20.6856C244.42 23.5152 246.371 24.1982 247.933 24.1982C249.396 24.1982 250.079 23.9055 250.079 23.9055L250.469 21.954C250.469 21.954 249.396 22.4419 248.323 22.4419C246.079 22.4419 246.469 20.7832 246.469 20.7832H250.567C250.567 20.7832 250.86 19.5147 250.86 18.9293C250.86 17.6608 250.177 16.0021 247.933 16.0021C245.981 15.9045 244.42 18.1487 244.42 20.6856ZM247.933 17.7584C249.006 17.7584 248.811 19.0268 248.811 19.1244H246.567C246.664 19.0268 246.859 17.7584 247.933 17.7584Z" fill="white"/>
<path d="M260.715 23.9056L261.105 21.6615C261.105 21.6615 260.129 22.1493 259.349 22.1493C257.983 22.1493 257.299 21.076 257.299 19.8076C257.299 17.3683 258.47 16.0998 259.934 16.0998C260.91 16.0998 261.788 16.6852 261.788 16.6852L262.081 14.5386C262.081 14.5386 260.91 14.0508 259.739 14.0508C257.397 14.0508 255.153 16.0998 255.153 19.9052C255.153 22.442 256.324 24.1008 258.763 24.1008C259.641 24.1984 260.715 23.9056 260.715 23.9056Z" fill="white"/>
<path d="M232.711 15.9043C231.345 15.9043 230.272 16.2946 230.272 16.2946L229.979 18.0509C229.979 18.0509 230.857 17.6606 232.223 17.6606C232.906 17.6606 233.492 17.7582 233.492 18.3436C233.492 18.7339 233.394 18.8315 233.394 18.8315H232.516C230.76 18.8315 228.906 19.5145 228.906 21.8562C228.906 23.7101 230.077 24.1004 230.857 24.1004C232.223 24.1004 232.906 23.2223 233.004 23.2223L232.906 24.0028H234.565L235.346 18.4412C235.346 16.0019 233.394 15.9043 232.711 15.9043ZM233.102 20.3926C233.102 20.6854 232.906 22.3441 231.735 22.3441C231.15 22.3441 230.955 21.8562 230.955 21.5635C230.955 21.0757 231.248 20.3926 232.809 20.3926C233.004 20.3926 233.102 20.3926 233.102 20.3926Z" fill="white"/>
<path d="M237.297 24.1003C237.785 24.1003 240.322 24.1979 240.322 21.4659C240.322 18.929 237.883 19.4168 237.883 18.4411C237.883 17.9532 238.273 17.7581 238.956 17.7581C239.249 17.7581 240.322 17.8557 240.322 17.8557L240.615 16.0018C240.615 16.0018 239.932 15.8066 238.663 15.8066C237.2 15.8066 235.638 16.3921 235.638 18.4411C235.638 20.7829 238.175 20.5877 238.175 21.4659C238.175 22.0513 237.492 22.1489 237.004 22.1489C236.126 22.1489 235.151 21.8562 235.151 21.8562L234.858 23.71C235.053 23.9052 235.638 24.1003 237.297 24.1003Z" fill="white"/>
<path d="M277.497 14.3438L277.107 17.0758C277.107 17.0758 276.326 16.1001 275.155 16.1001C273.301 16.1001 271.74 18.3442 271.74 20.9787C271.74 22.6374 272.521 24.2962 274.277 24.2962C275.448 24.2962 276.229 23.5156 276.229 23.5156L276.131 24.1986H278.18L279.644 14.5389L277.497 14.3438ZM276.521 19.6127C276.521 20.686 276.034 22.1496 274.863 22.1496C274.18 22.1496 273.789 21.5641 273.789 20.4908C273.789 18.8321 274.472 17.8564 275.448 17.8564C276.131 17.9539 276.521 18.4418 276.521 19.6127Z" fill="white"/>
<path d="M221.685 24.0035L222.856 16.7831L223.051 24.0035H224.418L227.052 16.7831L225.979 24.0035H228.125L229.784 14.3438H226.467L224.418 20.2957L224.32 14.3438H221.393L219.734 24.0035H221.685Z" fill="white"/>
<path d="M252.909 24.003C253.494 20.6855 253.592 17.9535 255.055 18.4414C255.251 17.1729 255.543 16.5875 255.738 16.0996H255.348C254.47 16.0996 253.689 17.2705 253.689 17.2705L253.885 16.1972H251.933L250.665 24.003H252.909Z" fill="white"/>
<path d="M265.398 15.9043C264.032 15.9043 262.959 16.2946 262.959 16.2946L262.666 18.0509C262.666 18.0509 263.544 17.6606 264.91 17.6606C265.593 17.6606 266.179 17.7582 266.179 18.3436C266.179 18.7339 266.081 18.8315 266.081 18.8315H265.203C263.447 18.8315 261.593 19.5145 261.593 21.8562C261.593 23.7101 262.764 24.1004 263.544 24.1004C264.91 24.1004 265.593 23.2223 265.691 23.2223L265.593 24.0028H267.447L268.228 18.4412C268.228 16.0019 266.081 15.9043 265.398 15.9043ZM265.886 20.3926C265.886 20.6854 265.691 22.3441 264.52 22.3441C263.935 22.3441 263.739 21.8562 263.739 21.5635C263.739 21.0757 264.032 20.3926 265.593 20.3926C265.788 20.3926 265.788 20.3926 265.886 20.3926Z" fill="white"/>
<path d="M269.789 24.003C270.374 20.6855 270.472 17.9535 271.935 18.4414C272.131 17.1729 272.423 16.5875 272.618 16.0996H272.228C271.35 16.0996 270.569 17.2705 270.569 17.2705L270.765 16.1972H268.813L267.545 24.003H269.789Z" fill="white"/>
<path d="M193.975 9.07422H189.779C188.511 9.07422 187.535 9.46451 186.95 10.733L178.949 28.9791H184.608C184.608 28.9791 185.583 26.5398 185.779 25.9543C186.364 25.9543 191.926 25.9543 192.706 25.9543C192.901 26.6373 193.389 28.8815 193.389 28.8815H198.463L193.975 9.07422ZM187.34 21.8563C187.828 20.6854 189.486 16.2946 189.486 16.2946C189.486 16.3922 189.974 15.1237 190.169 14.4407L190.56 16.197C190.56 16.197 191.633 20.9781 191.828 21.9538H187.34V21.8563Z" fill="#3362AB"/>
<path d="M179.339 22.4414C179.339 26.5395 175.631 29.2715 169.874 29.2715C167.435 29.2715 165.093 28.7837 163.825 28.1982L164.605 23.7099L165.288 24.0026C167.045 24.7832 168.216 25.0759 170.362 25.0759C171.923 25.0759 173.582 24.4905 173.582 23.1245C173.582 22.2463 172.899 21.6609 170.752 20.6851C168.703 19.7094 165.971 18.1482 165.971 15.3186C165.971 11.4157 169.777 8.78125 175.143 8.78125C177.192 8.78125 178.949 9.17154 180.022 9.65941L179.241 13.9526L178.851 13.5623C177.875 13.172 176.607 12.7817 174.753 12.7817C172.704 12.8793 171.728 13.7575 171.728 14.538C171.728 15.4162 172.899 16.0992 174.753 16.9774C177.875 18.441 179.339 20.0997 179.339 22.4414Z" fill="#3362AB"/>
<path d="M131.723 9.2692L131.821 8.87891H140.212C141.383 8.87891 142.261 9.2692 142.554 10.5376L144.408 19.3192C142.554 14.6357 138.261 10.8304 131.723 9.2692Z" fill="#F9B50B"/>
<path d="M156.214 9.07414L147.725 28.8814H141.968L137.09 12.294C140.602 14.5382 143.53 18.0508 144.603 20.4902L145.188 22.5392L150.457 8.97656H156.214V9.07414Z" fill="#3362AB"/>
<path d="M158.458 8.97656H163.825L160.41 28.8814H155.043L158.458 8.97656Z" fill="#3362AB"/>
<path d="M64.1087 9.63089C63.9222 9.08084 63.6778 8.61413 63.1516 8.5933H63.1185H62.6793H61.8342C61.7969 8.58913 61.7555 8.58496 61.714 8.58496H61.2914C61.25 8.58496 61.2086 8.58913 61.1713 8.5933C60.7321 8.65997 60.5126 9.10167 60.3468 9.61839L53.8423 27.8992C53.8423 28.1409 54.0371 28.3367 54.2774 28.3367H55.6363C56.1748 28.3367 56.4524 27.8908 56.614 27.3533L57.9108 23.5446C58.0019 23.2821 58.2463 23.1071 58.5239 23.1071H65.7576C66.031 23.1071 66.2755 23.2821 66.3666 23.5405L67.7172 27.3908C67.8829 27.9284 68.1729 28.3742 68.7364 28.3742H70.1574C70.4102 28.3742 70.6132 28.1784 70.6132 27.9367L64.1087 9.63089ZM58.8015 20.9444L62.0827 11.3269L65.4593 20.9444H58.8015Z" fill="#76A62D"/>
<path d="M83.125 8.64266C82.951 8.57598 81.9443 8.58432 81.9443 8.58432C81.269 8.60099 80.8381 8.58432 80.5356 9.00519C80.4901 9.06769 80.4569 9.13437 80.4238 9.20104L76.3927 17.9727L72.2414 9.20521C72.2082 9.13853 72.1751 9.07186 72.1295 9.00936C71.8271 8.58848 71.3962 8.60099 70.7209 8.58848C70.7209 8.58848 69.7142 8.58015 69.5402 8.64682C69.1259 8.80517 69.3993 9.31772 69.594 9.73859L74.6858 19.9562C74.9178 20.4229 75.0379 20.9354 75.0379 21.4563V27.6235C75.0379 28.0402 75.3735 28.3778 75.7878 28.3778H76.8525C77.2668 28.3778 77.6024 28.0402 77.6024 27.6235V21.4855C77.6024 20.9646 77.7226 20.452 77.9546 19.9853L83.067 9.73442C83.2659 9.31355 83.5393 8.801 83.125 8.64266Z" fill="#76A62D"/>
<path d="M102.589 18.1856L90.367 7.8888C90.2758 7.81379 90.1432 7.81796 90.0604 7.90547L88.254 9.7973L98.2345 18.1856L88.254 26.5738L90.0604 28.4656C90.1432 28.5531 90.2758 28.5573 90.367 28.4823L102.589 18.1856Z" fill="#76A62D"/>
<path d="M111.372 18.2695L99.1501 7.97278C99.0589 7.89777 98.9264 7.90194 98.8435 7.98945L97.0372 9.88128L107.018 18.2695L97.0372 26.6578L98.8435 28.5496C98.9264 28.6371 99.0589 28.6413 99.1501 28.5663L111.372 18.2695Z" fill="#76A62D"/>
<path d="M15.8013 8.57227H14.2601C13.937 8.57227 13.6801 8.83479 13.6801 9.15565V27.7198C13.6801 28.0573 13.9536 28.3365 14.2933 28.3365H15.7765C16.1121 28.3365 16.3896 28.0615 16.3896 27.7198V9.15982C16.3855 8.83479 16.1245 8.57227 15.8013 8.57227Z" fill="#76A62D"/>
<path d="M10.2871 25.9819H3.40557V9.15956C3.40557 8.83453 3.14457 8.57617 2.82556 8.57617H1.42108C1.09793 8.57617 0.841064 8.8387 0.841064 9.15956V25.9861V27.5237C0.841064 27.9071 1.14765 28.2154 1.5288 28.2154H3.40972H10.2912C10.6227 28.2154 10.8878 27.9487 10.8878 27.6154V26.582C10.8837 26.2528 10.6144 25.9819 10.2871 25.9819Z" fill="#76A62D"/>
<path d="M51.8247 9.66389C50.9671 9.08051 49.7822 8.66797 47.516 8.66797H43.9406H43.1286C42.6065 8.66797 42.1798 9.09301 42.1798 9.62222V27.3571C42.1798 27.8988 42.6148 28.3406 43.1576 28.3406H43.9116C44.4502 28.3406 44.8893 27.903 44.8893 27.3571V20.694C45.7014 20.694 48.5103 20.694 48.8417 20.694C49.227 20.694 54.1738 19.9148 54.1738 14.4977C54.1696 12.1391 52.9682 10.4473 51.8247 9.66389ZM47.9427 18.6522C47.6858 18.6522 45.1876 18.6522 45.1876 18.6522H44.8852V10.7098H47.0644C48.56 10.7098 49.343 10.9807 49.9106 11.3682C50.6688 11.8849 51.4601 13.0017 51.4601 14.5602C51.4643 18.1396 48.1996 18.6522 47.9427 18.6522Z" fill="#76A62D"/>
<path d="M39.6733 28.778C39.5655 28.6988 39.4454 28.6405 39.317 28.5905C38.2978 28.1988 36.8105 27.1612 35.9819 26.6236C35.3397 26.2069 35.4391 25.8777 35.5261 25.7402C35.5427 25.7194 35.5634 25.6944 35.58 25.6736C35.5841 25.6694 35.5841 25.6694 35.5841 25.6694C36.9928 23.9317 37.8089 21.4565 37.8089 18.3312C37.8089 12.8057 35.4598 8.32617 29.0838 8.32617C23.2173 8.32617 20.4001 12.8057 20.4001 18.3312C20.4001 23.8567 22.2934 28.5863 29.0838 28.5863C30.4634 28.5863 31.7312 28.3196 32.8456 27.8029H32.8498C33.1771 27.6612 33.4961 27.6654 33.9352 27.9863C37.0839 30.3323 38.6458 31.1949 39.7644 31.1949C40.303 31.1949 40.2077 29.5281 40.2077 29.5281C40.2077 29.5281 40.129 29.1072 39.6733 28.778ZM23.1842 18.3729C23.1842 18.3604 23.1842 18.3479 23.1842 18.3312C23.1925 14.5809 24.5514 10.6014 29.0921 10.6014C34.2377 10.6014 35.0248 14.5809 35.029 18.3312C35.029 18.3437 35.029 18.3562 35.029 18.3729C35.029 22.8358 33.5914 26.2278 29.0921 26.2278C23.9258 26.2278 23.1842 22.1357 23.1842 18.3729Z" fill="#76A62D"/>
</svg>
