<svg width="32" height="36" viewBox="0 0 32 36" fill="none" xmlns="http://www.w3.org/2000/svg">
<path d="M29.7143 3.12949H20.5716C20.151 3.12949 19.8096 3.48013 19.8096 3.91214C19.8096 4.34416 20.151 4.6948 20.5716 4.6948H29.7143C30.1349 4.6948 30.4762 4.34416 30.4762 3.91214C30.4762 3.48013 30.1349 3.12949 29.7143 3.12949Z" fill="#172C48"/>
<path d="M30.2537 3.35955L27.2061 0.228999C26.909 -0.0762274 26.4259 -0.0762274 26.1288 0.228999C25.8316 0.534225 25.8316 1.03044 26.1288 1.33566L28.637 3.91211L26.1273 6.4901C25.8301 6.79532 25.8301 7.29154 26.1273 7.59676C26.2766 7.74857 26.4716 7.82532 26.6667 7.82532C26.8618 7.82532 27.0568 7.74864 27.2061 7.59676L30.2537 4.46621C30.5509 4.16091 30.5509 3.66477 30.2537 3.35955Z" fill="#172C48"/>
<path d="M9.90503 3.12949H0.762275C0.341709 3.12949 0.000355106 3.48013 0.000355106 3.91214C0.000355106 4.34416 0.341709 4.6948 0.762275 4.6948H9.90503C10.3256 4.6948 10.667 4.34416 10.667 3.91214C10.667 3.48013 10.3256 3.12949 9.90503 3.12949Z" fill="#172C48"/>
<path d="M1.83955 3.91203L4.34774 1.33558C4.64488 1.03036 4.64488 0.534146 4.34774 0.22892C4.0506 -0.0763066 3.56753 -0.0763066 3.27039 0.22892L0.222855 3.35954C-0.0742849 3.66477 -0.0742849 4.16098 0.222855 4.46621L3.27046 7.59676C3.41982 7.74857 3.61482 7.82531 3.80989 7.82531C4.00496 7.82531 4.19995 7.74864 4.34781 7.59522C4.64495 7.28999 4.64495 6.79378 4.34781 6.48855L1.83955 3.91203Z" fill="#172C48"/>
<path d="M28.9524 15.6515C28.3261 15.6515 27.7425 15.8472 27.2579 16.1806C26.8404 14.9629 25.7082 14.0863 24.381 14.0863C23.7547 14.0863 23.1711 14.282 22.6865 14.6154C22.269 13.3976 21.1368 12.5211 19.8096 12.5211C19.255 12.5211 18.7339 12.6745 18.2859 12.9421V7.82527C18.2859 6.09876 16.919 4.69472 15.2383 4.69472C13.5575 4.69472 12.1906 6.09876 12.1906 7.82527V21.13L9.54232 19.0905C7.97284 17.8805 5.73894 18.0418 4.34774 19.4693C3.45632 20.385 3.45632 21.8735 4.34774 22.7892L15.1987 33.937C16.4939 35.2675 18.2173 36 20.0489 36H23.6192C28.2393 36 32 32.1385 32 27.3911V18.7821C32 17.0556 30.6332 15.6515 28.9524 15.6515ZM30.4762 27.391C30.4762 31.2744 27.3997 34.4347 23.6192 34.4347H20.0489C18.6226 34.4347 17.2832 33.865 16.276 32.8303L5.42508 21.6825C5.12794 21.3773 5.12794 20.8811 5.42508 20.5759C5.89743 20.0922 6.52828 19.8433 7.16221 19.8433C7.67727 19.8433 8.19534 20.0077 8.62962 20.3426L12.4955 23.3213C12.7271 23.4997 13.038 23.5264 13.294 23.3949C13.5515 23.2619 13.7146 22.9911 13.7146 22.6952V7.82527C13.7146 6.96279 14.3972 6.26003 15.2383 6.26003C16.0795 6.26003 16.7621 6.96286 16.7621 7.82527V19.5647C16.7621 19.9968 17.1035 20.3474 17.524 20.3474C17.9446 20.3474 18.2859 19.9968 18.2859 19.5647V15.6516C18.2859 14.7891 18.9686 14.0864 19.8097 14.0864C20.6508 14.0864 21.3335 14.7892 21.3335 15.6516V19.5647C21.3335 19.9968 21.6748 20.3474 22.0954 20.3474C22.516 20.3474 22.8573 19.9968 22.8573 19.5647V17.2168C22.8573 16.3544 23.54 15.6516 24.3811 15.6516C25.2222 15.6516 25.9049 16.3544 25.9049 17.2168V19.5647C25.9049 19.9968 26.2462 20.3474 26.6668 20.3474C27.0873 20.3474 27.4287 19.9968 27.4287 19.5647V18.7821C27.4287 17.9196 28.1113 17.2168 28.9525 17.2168C29.7936 17.2168 30.4762 17.9197 30.4762 18.7821V27.391Z" fill="#172C48"/>
</svg>
