<svg width="38" height="38" viewBox="0 0 38 38" fill="none" xmlns="http://www.w3.org/2000/svg">
<circle cx="19.0899" cy="19.0176" r="18.418" fill="#2F89CE"/>
<path d="M9.28292 19.3621L13.5173 20.941L15.168 26.2519C15.2398 26.6107 15.6704 26.6825 15.9574 26.4672L18.3258 24.5294C18.5411 24.3141 18.9 24.3141 19.187 24.5294L23.4214 27.6155C23.7085 27.8308 24.1391 27.6873 24.2109 27.3284L27.3687 12.2569C27.4405 11.8981 27.0816 11.5393 26.7228 11.6828L9.28292 18.4291C8.85231 18.5726 8.85231 19.2185 9.28292 19.3621ZM14.9527 20.1515L23.2779 15.0559C23.4214 14.9842 23.565 15.1995 23.4214 15.2712L16.6034 21.6587C16.3881 21.874 16.1727 22.1611 16.1727 22.5199L15.9574 24.2424C15.9574 24.4577 15.5986 24.5294 15.5268 24.2424L14.6656 21.0845C14.4503 20.7257 14.5938 20.2951 14.9527 20.1515Z" fill="white"/>
</svg>
