<svg width="321" height="361" viewBox="0 0 321 361" fill="none" xmlns="http://www.w3.org/2000/svg">
<path d="M135.411 202.484L153.989 212.359L163.827 193.771C175.372 170.862 178.785 162.22 173.561 150.149C165.727 132.042 142.43 127.792 138.617 143.773C136.91 148.094 133.898 149.397 123.556 150.29C110.201 152.486 107.189 153.789 105.482 158.11C95.6443 176.698 106.491 193.501 135.411 202.484ZM120.143 158.932C126.167 156.325 129.179 155.022 134.803 159.754C141.733 167.504 141.733 167.504 143.84 155.844C141.228 149.808 142.935 145.487 150.265 145.898C165.326 139.381 170.653 176.486 158.203 189.039C148.766 200.288 145.754 201.591 131.494 193.431C108.598 181.841 102.069 166.753 120.143 158.932Z" fill="#F1C3A9"/>
<path d="M-38.407 180.961L-16.2088 232.263C-5.76254 256.404 4.68368 280.546 1.67145 281.85C2.97722 284.867 7.29523 286.582 10.3075 285.278C16.3319 282.672 20.6499 284.386 20.6499 284.386C29.2859 287.815 28.3808 277.458 6.1826 226.157L-18.6272 168.82L-27.6638 172.73C-33.6883 175.337 -39.7127 177.943 -38.407 180.961ZM-2.85408 230.067C12.8152 266.28 16.7326 275.333 13.7204 276.636C9.00168 282.261 6.39012 276.225 -1.04387 250.78C-7.57275 235.691 -12.3952 216.281 -17.6183 204.211C-21.5356 195.157 -24.1472 189.122 -21.135 187.818C-21.135 187.818 -14.6061 202.907 -2.85408 230.067Z" fill="#F1C3A9"/>
<path d="M142.845 227.929C157.506 228.751 157.506 228.751 172.968 214.895C194.454 198.433 197.867 189.79 198.668 175.113C200.271 145.757 179.883 115.169 149.657 103.168C128.067 94.5968 90.6143 107.22 82.0821 128.825C69.2318 148.717 73.2529 182.804 94.0416 206.054C107.901 221.553 122.16 229.714 142.845 227.929ZM116.923 110.167C170.342 101.384 214.13 161.257 181.099 200.628C160.919 220.109 128.185 227.107 111.314 212.911C71.9471 179.786 78.1647 119.772 116.923 110.167Z" fill="#F1C3A9"/>
<path d="M1.74647 91.9318C1.74647 91.9318 -2.57153 90.2175 -6.88953 88.5031C-12.5133 83.7711 -18.5378 86.3779 -24.5622 88.9846C-30.5867 91.5914 -37.9169 91.1805 -43.9413 93.7873C-51.2716 93.3763 -54.2838 94.6797 -56.7916 113.679C-63.6174 130.963 -65.3238 135.284 -75.6663 136.177C-84.703 140.087 -84.703 140.087 -85.1036 147.426C-82.4921 153.461 -4.54616 341.864 0.67695 353.935C0.67695 353.935 6.7014 351.328 9.71363 350.025C12.7259 348.721 50.579 328.759 95.7624 309.209C290.251 221.47 313.043 208.025 314.75 203.704C316.456 199.383 315.15 196.365 315.15 196.365C307.82 195.954 293.457 162.759 253.482 86.9051C232.59 38.6214 219.131 15.7829 214.813 14.0686C214.813 14.0686 202.764 19.2822 192.422 20.1746C164.006 28.8874 156.676 28.4765 136.792 15.5837L118.214 5.70856L100.141 13.5289C91.1044 17.4391 74.7375 20.9383 65.7008 24.8485L46.3217 29.6512L45.5203 44.3289C44.719 59.0066 35.2816 70.2556 18.514 81.0937C9.47737 85.0039 4.75869 90.6284 1.74647 91.9318ZM57.673 64.1496L67.9117 38.2228L116.107 17.3685L137.697 25.9402C157.581 38.8331 157.581 38.8331 185.596 37.4591C198.951 35.2633 209.293 34.3708 212.305 33.0674C215.318 31.764 217.929 37.7995 223.553 42.5316C234.4 59.3346 299.184 192.526 298.784 199.865C300.089 202.882 285.028 209.399 250.187 228.058C188.236 258.447 22.5639 330.133 13.5272 334.044L6.19697 333.633L-30.3648 249.136C-57.7861 185.764 -66.9265 164.64 -63.9143 163.336C-62.6085 166.354 -60.9021 162.033 -66.5259 157.301C-69.1374 151.265 -69.1374 151.265 -60.1007 147.355C-51.0641 143.445 -49.3576 139.124 -51.9692 133.088C-54.18 119.714 -44.7427 108.465 -32.6938 103.251C-20.6449 98.0378 -17.6327 96.7345 -4.67865 101.877C8.27535 107.02 11.2876 105.717 17.312 103.11C19.0185 98.7892 28.0552 94.879 34.0796 92.2722C47.4343 90.0764 46.1285 87.0586 57.673 64.1496Z" fill="#F1C3A9"/>
<path d="M144.656 248.642C178.695 244.662 207.512 228.61 219.056 205.701C233.613 181.488 216.133 124.562 193.638 105.634C168.131 88.0092 147.847 82.4553 124.55 78.2047C96.535 79.5787 90.5106 82.1854 73.3423 100.362C54.8683 115.522 48.0425 132.806 52.4642 159.555C56.9898 211.338 100.274 253.515 144.656 248.642ZM71.1458 194.464C55.0758 165.59 57.4798 121.557 78.9661 105.094C91.4157 92.542 100.452 88.6319 118.125 88.1503C141.822 85.0621 154.776 90.2051 178.978 104.812L198.861 117.705L206.295 143.15C219.353 173.328 219.857 191.023 205.701 207.897C192.851 227.788 162.729 240.822 133.408 239.178C118.748 238.356 85.91 220.32 83.2985 214.285C81.9927 211.267 75.0631 203.517 71.1458 194.464Z" fill="#F1C3A9"/>
<path d="M46.3217 29.6512L65.7008 24.8485C74.7375 20.9383 91.1044 17.4391 100.141 13.5289L118.214 5.70856L136.792 15.5837C156.676 28.4765 164.006 28.8874 192.422 20.1746C202.764 19.2822 214.813 14.0686 214.813 14.0686C219.131 15.7829 232.59 38.6214 253.482 86.9051C293.457 162.759 307.82 195.954 315.15 196.365C315.15 196.365 316.456 199.383 314.75 203.704C313.043 208.025 290.251 221.47 95.7624 309.209C50.579 328.759 12.7259 348.721 9.71363 350.025C6.7014 351.328 0.67695 353.935 0.67695 353.935C-4.54616 341.864 -82.4921 153.461 -85.1036 147.426C-84.703 140.087 -84.703 140.087 -75.6663 136.177C-73.2142 135.976 -71.2803 135.569 -69.5935 134.839C-64.2317 132.519 -61.9963 126.858 -56.7916 113.679C-55.0743 100.539 -53.0847 95.8806 -49.6206 94.3817C-48.0543 93.7039 -46.2137 93.6599 -43.9413 93.7873C-37.9169 91.1805 -30.5867 91.5914 -24.5622 88.9846C-18.5378 86.3779 -12.5133 83.7711 -6.88953 88.5031C-2.57153 90.2175 1.74647 91.9318 1.74647 91.9318C4.75869 90.6284 9.47737 85.0039 18.514 81.0937C35.2816 70.2556 44.719 59.0066 45.5203 44.3289L46.3217 29.6512ZM41.5937 25.7496L41.3803 29.3889L40.579 44.0666C39.9218 56.1023 32.3721 66.1763 16.1337 76.7496C10.0149 79.4689 5.67945 82.9212 2.7748 85.2171C2.26777 85.6156 1.71355 86.0704 1.19346 86.4387L-4.41994 84.2101C-12.1827 78.2539 -20.4663 81.8382 -26.551 84.4711C-29.021 85.5399 -31.9591 86.023 -35.1039 86.5239C-38.3091 87.0509 -41.6176 87.5868 -44.8457 88.8045C-47.342 88.7382 -49.5139 88.9256 -51.6225 89.838C-57.7976 92.5099 -59.9484 99.8537 -61.6337 112.406C-66.4589 124.561 -68.312 128.874 -71.5953 130.295C-72.6797 130.764 -74.1226 131.066 -76.1178 131.249L-76.9151 131.307L-77.638 131.62C-87.8193 136.025 -89.4991 137.433 -90.028 147.12L-90.079 148.325L-89.622 149.381C-88.5512 151.855 -74.4647 185.815 -58.1443 225.186C-35.314 280.262 -6.90996 348.798 -3.84139 355.89L-1.88272 360.417L11.6723 354.551C12.3952 354.239 14.0128 353.431 17.9447 351.443C31.117 344.776 61.9358 329.22 97.7211 313.735C315.368 215.546 317.224 210.91 319.327 205.521C321.716 199.472 319.891 194.923 319.669 194.41L318.454 191.604L315.859 191.473C311.623 188.792 300.549 167.25 285.33 137.614C277.994 123.304 268.833 105.521 257.935 84.7991C243.872 52.2981 225.314 12.9642 216.635 9.51836L214.735 8.76405L212.868 9.57216C212.747 9.62429 201.408 14.4949 191.996 15.307L191.479 15.3516L190.971 15.4998C163.662 23.8771 157.892 23.4359 139.457 11.4929L120.507 1.42031L118.421 0.31691L98.2085 9.06268C93.9613 10.9005 87.6706 12.7268 81.5738 14.505C75.3564 16.3354 68.9322 18.1837 64.1598 20.2128L45.1683 24.9194L41.5937 25.7496Z" fill="#F1C3A9"/>
</svg>
