<svg width="263" height="184" viewBox="0 0 263 184" fill="none" xmlns="http://www.w3.org/2000/svg">
<path d="M73.6438 50.5035C71.5095 53.8359 67.6084 56.9838 67.6084 56.9838C65.8416 56.7992 56.8944 39.8648 57.0781 38.1063C57.0781 38.1063 53.912 34.22 52.5126 30.5184C49.3465 26.6321 48.1309 21.1719 46.5478 19.2288C46.7315 17.4703 43.7491 11.8255 40.3992 9.69775C32.3001 1.74063 23.466 0.817607 13.897 6.92869C6.46227 9.70733 6.27853 11.4659 5.54358 18.5C4.99237 23.7755 5.84049 32.7528 6.87235 39.9715C9.30355 50.8918 9.11981 52.6504 6.80178 57.7413C2.71694 62.6477 2.5332 64.4062 3.56507 71.6249L9.16242 86.4316C14.0954 90.5024 13.9116 92.261 11.9611 93.8349C0.257779 103.278 8.28633 129.005 22.2371 132.241C29.1206 134.738 30.8874 134.922 38.6191 146.396C41.6015 152.041 43.3683 152.226 59.2696 153.887C71.6373 155.18 76.9378 155.733 82.6057 152.77C86.3231 151.381 91.6235 151.935 93.3903 152.119C98.6908 152.673 108.557 160.815 108.189 164.332C108.005 166.09 109.772 166.275 111.355 168.218C112.938 170.161 114.522 172.104 114.154 175.621C113.97 177.38 115.37 181.082 115.37 181.082C117.136 181.266 128.289 177.098 128.289 177.098C128.472 175.34 130.423 173.766 133.957 174.135C135.907 172.561 139.624 171.172 139.624 171.172C139.992 167.655 153.278 160.154 156.628 162.282C165.462 163.205 185.816 156.443 186.367 151.167C186.551 149.409 188.318 149.594 191.851 149.963C197.152 150.517 200.869 149.127 204.77 145.979C214.155 141.627 214.339 139.868 214.89 134.593C215.074 132.834 217.025 131.26 217.025 131.26C218.792 131.445 222.693 128.297 226.594 125.149C236.163 119.038 240.799 108.856 238 101.453C236.601 97.7512 236.785 95.9927 240.686 92.8448C246.537 88.1231 246.721 86.3646 247.456 79.3305C248.191 72.2963 248.558 68.7793 243.442 66.467C241.859 64.5238 242.042 62.7653 249.661 58.2281C259.23 52.1171 261.548 47.0261 258.933 37.8642C254.735 26.7593 249.435 26.2055 236.516 30.1888C219.696 37.32 214.028 40.2832 200.374 51.3007C190.621 59.1703 188.854 58.9857 187.271 57.0426C177.589 47.1423 157.97 46.8702 146.451 54.5552L138.832 59.0924L128.966 50.9506C124.033 46.8798 117.334 42.6243 115.567 42.4397C103.566 37.6304 83.3966 42.6339 73.6438 50.5035ZM187.243 108.594C189.01 108.778 189.01 108.778 188.826 110.537L186.876 112.111L185.293 110.168C185.476 108.409 185.476 108.409 187.243 108.594ZM199.865 90.3575C200.049 88.599 197.067 82.9542 195.851 77.494C191.653 66.389 191.653 66.389 203.54 55.187C209.392 50.4652 237.731 35.649 243.215 34.4443C250.466 33.4242 253.633 37.3104 252.898 44.3445C252.346 49.6201 250.396 51.194 242.594 57.4897C238.693 60.6376 232.841 65.3593 231.074 65.1747C229.123 66.7487 227.173 68.3226 228.756 70.2657C228.572 72.0242 230.339 72.2088 234.056 70.8195C239.541 69.6148 244.657 71.9271 244.106 77.2027C243.555 82.4783 229.717 95.2543 224.233 96.459C218.749 97.6637 212.897 102.385 214.48 104.329C216.247 104.513 218.014 104.698 221.731 103.308L228.799 104.047C232.149 106.175 231.23 114.967 227.145 119.874C223.244 123.021 212.092 127.189 205.025 126.451C201.491 126.082 199.724 125.897 201.307 127.84C201.123 129.599 202.706 131.542 204.473 131.727C209.774 132.28 209.039 139.315 205.138 142.462C203.187 144.036 197.887 143.482 188.869 144.318C178.268 143.21 178.268 143.21 177.717 148.486C179.116 152.188 177.166 153.762 173.448 155.151C171.498 156.725 166.013 157.929 162.48 157.56C155.413 156.822 155.596 155.063 159.497 151.915C161.448 150.342 165.533 145.435 169.618 140.529C173.886 133.864 179.922 127.384 183.823 124.236C189.674 119.514 198.947 99.1501 199.865 90.3575ZM186.352 65.8352L187.936 67.7783L185.985 69.3523C184.218 69.1677 184.402 67.4091 184.586 65.6506C184.586 65.6506 184.586 65.6506 186.352 65.8352ZM184.034 70.9262L183.483 76.2018C181.349 79.5342 181.349 79.5342 181.716 76.0172C181.9 74.2586 182.268 70.7416 184.034 70.9262ZM182.932 81.4773C182.932 81.4773 184.699 81.6619 184.331 85.179C184.148 86.9375 182.197 88.5114 180.614 86.5683C180.981 83.0513 181.165 81.2927 182.932 81.4773ZM181.646 93.787L180.911 100.821C179.808 111.372 181.208 115.074 182.975 115.259C184.741 115.443 184.741 115.443 182.607 118.776C180.473 122.108 178.522 123.682 176.755 123.497C174.805 125.071 179.144 100.637 181.646 93.787ZM169.943 103.231L172.515 78.6112C174.352 61.0259 176.303 59.452 178.07 59.6366C181.42 61.7643 181.42 61.7643 175.059 105.543C170.904 128.219 170.536 131.736 166.452 136.643C162.55 139.79 162.55 139.79 166.155 122.39C167.073 113.597 169.943 103.231 169.943 103.231ZM164.755 118.688C161.519 132.572 158.466 144.697 156.515 146.271C156.331 148.029 154.932 144.328 157.25 139.237C157.985 132.202 161.773 113.043 165.561 93.8841C170.451 64.1738 170.819 60.6567 169.349 74.7249C170.197 83.7022 166.409 102.861 164.755 118.688ZM160.331 75.5604L162.352 56.2166C162.352 56.2166 165.886 56.5859 167.652 56.7705L169.419 56.9551C165.702 58.3444 165.518 60.1029 164.048 74.1711C162.578 88.2393 153.716 138.867 153.349 142.384C153.349 142.384 152.981 145.901 152.614 149.419C152.246 152.936 150.112 156.268 148.345 156.083C146.579 155.899 144.995 153.956 147.497 147.106C147.865 143.589 151.101 129.706 152.571 115.637C154.041 101.569 157.645 84.1685 160.331 75.5604ZM157.052 55.6628C158.818 55.8474 157.165 71.6742 148.854 117.027C144.882 137.944 142.861 157.288 142.677 159.047C142.494 160.805 140.543 162.379 138.776 162.195C138.776 162.195 137.744 154.976 140.981 141.092C142.267 128.783 146.239 107.865 147.525 95.5551C152.599 64.0862 153.518 55.2936 157.052 55.6628ZM147.666 60.0154C149.433 60.2 148.882 65.4756 147.963 74.2682C147.228 81.3023 144.543 89.9103 144.175 93.4274L144.359 91.6689C144.797 70.3819 145.899 59.8308 147.666 60.0154ZM105.814 50.3093C105.998 48.5508 105.998 48.5508 105.998 48.5508C107.765 48.7354 107.765 48.7354 107.581 50.4939C107.397 52.2524 105.446 53.8264 105.446 53.8264C105.446 53.8264 105.63 52.0678 105.814 50.3093ZM96.6124 52.9033C98.9304 47.8124 99.1142 46.0538 100.697 47.997C100.697 47.997 97.0931 65.3976 94.7045 88.2585C90.5491 110.935 87.3123 124.818 85.7293 122.875C84.3299 119.174 93.5594 65.0284 96.6124 52.9033ZM89.3614 53.9234C91.6794 48.8325 91.1282 54.1081 88.9234 75.2104C87.2697 91.0371 83.8493 106.679 83.6655 108.438C83.2981 111.955 81.1638 115.287 81.1638 115.287C79.2132 116.861 86.6759 62.5315 89.3614 53.9234ZM83.6935 56.8867L79.835 93.8157C77.1495 102.424 77.3332 100.665 78.9869 84.8385C80.273 72.5288 81.5592 60.2191 83.6935 56.8867ZM77.6727 148.699C68.6549 149.535 61.4039 150.555 49.22 147.504C44.1033 145.192 42.3365 145.007 40.9371 141.306C39.9053 134.087 39.9053 134.087 46.7888 136.584C48.5556 136.768 52.0892 137.138 52.273 135.379C52.4567 133.621 47.1562 133.067 41.8558 132.513C19.071 128.354 6.40635 112.809 16.5266 101.423C18.6609 98.0904 20.4277 98.275 22.1945 98.4596C25.5444 100.587 27.1275 102.53 28.8943 102.715C32.4279 103.084 31.3961 95.8655 26.2793 93.5532C19.3958 91.0562 8.68177 73.9373 9.41672 66.9032C10.3354 58.1105 17.5864 57.0904 23.9187 64.863C26.9011 70.5077 30.4348 70.877 29.0354 67.1753C29.2192 65.4168 21.4875 53.9426 19.7207 53.758C17.9539 53.5734 16.7383 48.1132 13.5721 44.2269C9.55786 31.3634 9.26095 17.1106 16.8794 12.5735C28.5827 3.12995 36.6819 11.0871 54.5763 44.9558C60.3574 58.0039 63.3398 63.6487 65.4036 78.0861C66.7323 99.5576 75.4958 118.25 87.9767 135.554C94.1253 145.085 93.9415 146.844 77.6727 148.699ZM93.4609 134.349C91.6941 134.165 90.4785 128.705 91.0297 123.429C92.8671 105.844 103.312 57.1588 105.263 55.5849C105.263 55.5849 103.425 73.1701 101.221 94.2725C98.8319 117.133 95.2277 134.534 95.044 136.292C95.044 136.292 93.2772 136.108 93.4609 134.349ZM140.528 77.0468L135.935 121.01C133.546 143.871 129.575 164.789 129.575 164.789C129.391 166.547 127.44 168.121 127.44 168.121C123.907 167.752 125.56 151.925 133.32 111.848L140.528 77.0468ZM133.645 74.5499C137.546 71.402 136.627 80.1947 132.104 106.388C128.684 122.03 124.712 142.948 123.794 151.74C118.903 181.451 118.423 168.956 124.232 130.454C128.09 93.5245 131.694 76.1238 133.645 74.5499ZM114.111 141.84C115.214 131.289 119.186 110.371 121.207 91.0275C125.913 63.0757 126.281 59.5587 128.048 59.7433C131.581 60.1125 131.214 63.6295 126.875 88.0643C125.221 103.891 120.882 128.326 119.596 140.635C115.624 161.553 115.256 165.07 113.857 161.369C112.274 159.425 111.058 153.965 114.111 141.84ZM117.122 95.9339C110.762 139.712 107.157 157.113 105.942 151.653C104.542 147.951 105.461 139.159 110.903 104.173C119.948 51.7861 122.083 48.4537 117.122 95.9339ZM109.136 103.988C105.164 124.906 101.56 142.306 101.56 142.306C99.6095 143.88 99.6095 143.88 98.0264 141.937C96.4433 139.994 96.4433 139.994 96.4433 139.994C98.2101 140.179 99.8638 124.352 101.701 106.767C103.539 89.1815 106.959 73.5394 107.143 71.7808C107.326 70.0223 109.828 63.1728 110.379 57.8972C112.881 51.0477 113.065 49.2892 114.832 49.4738C118.182 51.6015 117.447 58.6356 109.136 103.988Z" fill="#F1C3A9"/>
<path d="M75.8913 63.1824C76.2588 59.6653 76.075 61.4239 75.3401 68.458C74.6051 75.4921 74.2376 79.0091 74.6051 75.4921C74.9726 71.975 75.5238 66.6994 75.8913 63.1824Z" fill="#F1C3A9"/>
<path d="M193.349 84.3435C193.533 82.585 193.349 84.3435 192.798 89.6191C192.43 93.1361 192.247 94.8946 192.43 93.1361C192.614 91.3776 193.165 86.102 193.349 84.3435Z" fill="#F1C3A9"/>
<path d="M188.416 80.2726C188.967 74.997 188.416 80.2726 187.498 89.0652C186.395 99.6164 186.028 103.133 186.579 97.8579C186.946 94.3408 187.865 85.5482 188.416 80.2726Z" fill="#F1C3A9"/>
<path d="M139.469 121.379C139.652 119.621 139.652 119.621 139.285 123.138C138.917 126.655 138.917 126.655 138.917 126.655C139.101 124.896 139.285 123.138 139.469 121.379Z" fill="#F1C3A9"/>
<path d="M27.6993 3.03764C32.1164 3.49915 36.3497 5.71919 40.3992 9.69775C43.7491 11.8255 46.7315 17.4703 46.5478 19.2288C48.1309 21.1719 49.3465 26.6321 52.5126 30.5184C53.912 34.22 57.0781 38.1063 57.0781 38.1063C56.8944 39.8648 65.8416 56.7992 67.6084 56.9838C67.6084 56.9838 71.5095 53.8359 73.6438 50.5035C81.6411 44.0504 96.6355 39.5195 108.385 40.7471C110.964 41.0166 113.389 41.5722 115.567 42.4397C117.334 42.6243 124.033 46.8798 128.966 50.9506L138.832 59.0924L146.451 54.5552C152.786 50.3284 161.55 48.5064 169.783 49.3667C176.533 50.0719 182.916 52.5699 187.271 57.0426C187.762 57.6449 188.271 58.0715 189.013 58.149C190.709 58.3262 193.627 56.7289 200.374 51.3007C214.028 40.2832 219.696 37.32 236.516 30.1888C241.867 28.5436 245.906 27.6678 249.104 28.002C253.627 28.4746 256.468 31.3669 258.933 37.8642C261.548 47.0261 259.23 52.1171 249.661 58.2281C242.042 62.7653 241.859 64.5238 243.442 66.467C248.558 68.7793 248.191 72.2963 247.456 79.3305C246.721 86.3646 246.537 88.1231 240.686 92.8448C236.785 95.9927 236.601 97.7512 238 101.453C240.799 108.856 236.163 119.038 226.594 125.149C222.693 128.297 218.792 131.445 217.025 131.26C217.025 131.26 215.074 132.834 214.89 134.593C214.339 139.868 214.155 141.627 204.77 145.979C200.869 149.127 197.152 150.517 191.851 149.963C188.318 149.594 186.551 149.409 186.367 151.167C185.816 156.443 165.462 163.205 156.628 162.282C156.327 162.091 155.945 161.98 155.504 161.933C150.998 161.463 139.959 167.971 139.624 171.172C139.624 171.172 135.907 172.561 133.957 174.135C130.423 173.766 128.472 175.34 128.289 177.098C128.289 177.098 117.136 181.266 115.37 181.082C115.37 181.082 113.97 177.38 114.154 175.621C114.522 172.104 112.938 170.161 111.355 168.218C109.772 166.275 108.005 166.09 108.189 164.332C108.557 160.815 98.6908 152.673 93.3903 152.119C91.6235 151.935 86.3231 151.381 82.6057 152.77C76.9378 155.733 71.6373 155.18 59.2696 153.887C43.3683 152.226 41.6015 152.041 38.6191 146.396C30.8874 134.922 29.1206 134.738 22.2371 132.241C8.28633 129.005 0.257779 103.278 11.9611 93.8349C13.9116 92.261 14.0954 90.5024 9.16242 86.4316L3.56507 71.6249C2.5332 64.4062 2.71694 62.6477 6.80178 57.7413C9.11981 52.6504 9.30355 50.8918 6.87235 39.9715C5.84049 32.7528 4.99237 23.7755 5.54358 18.5C6.27853 11.4659 6.46227 9.70733 13.897 6.92869C18.6815 3.87315 23.2823 2.57613 27.6993 3.03764ZM27.9749 0.399854C23.0455 -0.115192 17.8982 1.28471 12.6992 4.54583C4.38632 7.69492 3.71283 10.38 2.89336 18.2231C2.19883 24.8703 3.6009 35.8964 4.22666 40.335L4.2333 40.4424L4.25945 40.534C6.56909 50.9083 6.33927 52.2532 4.50435 56.3102C0.023182 61.7618 -0.178078 64.3718 0.91937 71.9885L0.960644 72.2772L1.05676 72.5539L6.90599 88.0269L7.44862 88.4747C9.58563 90.2446 10.2712 91.2051 10.4799 91.6002C10.4214 91.6474 10.3611 91.7122 10.2654 91.7733C4.43321 96.4793 2.2803 104.947 4.46795 114.438C6.46478 123.02 12.4823 132.608 21.4528 134.79L22.2965 135.091C27.9782 137.125 29.5102 137.676 36.3159 147.756C39.9478 154.535 42.916 154.845 58.994 156.525C71.5738 157.839 77.3689 158.445 83.692 155.195C85.7682 154.469 88.945 154.321 93.1147 154.757C97.2491 155.189 105.136 161.933 105.53 164.143C105.304 166.644 106.957 167.919 107.949 168.68C108.429 169.05 108.874 169.399 109.288 169.886C110.776 171.713 111.757 172.918 111.504 175.344C111.272 177.56 112.501 181.013 112.879 182.012L113.451 183.548L115.094 183.719C116.684 183.885 121.437 182.498 129.226 179.578L130.768 179.011L130.939 177.375C130.955 177.217 131.72 176.568 133.681 176.773L134.776 176.887L135.635 176.195C136.961 175.124 139.707 173.971 140.562 173.652L142.104 173.084L142.262 171.572C143.262 169.347 152.065 164.241 155.228 164.571C155.246 164.573 155.263 164.575 155.281 164.577L155.734 164.855L156.353 164.92C164.975 165.821 186.4 159.74 188.814 152.365C189.509 152.385 190.586 152.497 191.576 152.601C197.194 153.188 201.581 151.886 206.195 148.244C215.848 143.724 216.874 141.253 217.541 134.87C217.563 134.659 217.86 134.21 218.224 133.803C220.654 133.275 223.649 130.939 228.172 127.305C238.647 120.56 243.823 109.314 240.508 100.524C239.531 97.9151 239.319 97.3775 242.381 94.9064C248.799 89.7282 249.323 87.2764 250.124 79.6092C250.842 72.7334 251.371 67.6688 245.519 64.533C245.951 63.9914 247.257 62.7768 251.048 60.5064C261.631 53.7545 264.452 47.4362 261.509 37.1379L261.485 37.0287L261.443 36.9177C259.444 31.6067 256.431 26.0832 249.399 25.3484C246.095 25.0032 242.131 25.6735 235.746 27.6374L235.617 27.6772L235.486 27.7346C218.441 34.9668 212.603 38.0189 198.715 49.2252C192.337 54.372 190.182 55.3379 189.471 55.4769C189.439 55.438 189.408 55.3992 189.358 55.3585L189.279 55.2613L189.198 55.1817C184.663 50.5481 177.868 47.5448 170.077 46.7307C161.084 45.7911 151.722 47.8706 145.042 52.3103L139.1 55.8493L130.68 48.9075C127.194 46.0367 119.699 40.6671 116.333 39.8888C114.067 39.012 111.487 38.4047 108.678 38.1112C96.6108 36.8503 80.8408 41.2824 71.9658 48.4438L71.6342 48.7113L71.3994 49.0779C70.439 50.5775 68.9728 52.1309 67.7628 53.2845C65.2076 49.5332 60.35 40.297 59.7596 38.0842L59.8422 37.2929L59.1457 36.4379C59.114 36.3991 56.2365 32.8274 55.0033 29.5875L54.8493 29.1803L54.5802 28.85C52.9655 26.868 51.8921 24.3204 50.9483 22.0707C50.3496 20.6215 49.8049 19.338 49.1603 18.3285C48.6874 14.9903 45.3654 9.86109 42.0795 7.63338C37.6688 3.35043 32.922 0.916746 27.9749 0.399854Z" fill="#F1C3A9"/>
</svg>
