<svg width="180" height="237" viewBox="0 0 180 237" fill="none" xmlns="http://www.w3.org/2000/svg">
<path d="M4.82111 108.289C1.93959 110.688 1.93959 110.688 6.73206 116.445C20.154 129.639 95.6657 191.052 120.599 209.284C129.471 214.082 139.298 222.958 142.893 227.276C149.126 231.834 151.522 234.713 152.963 233.514C154.404 232.314 153.206 230.875 152.008 229.436C152.008 229.436 154.889 227.037 156.33 225.838C157.771 224.638 166.658 214.804 175.788 202.331C184.918 189.858 194.047 177.384 198.37 173.787C219.511 146.442 237.528 124.134 237.528 124.134C237.528 124.134 236.33 122.695 233.934 119.816C230.097 118.137 220.269 109.261 210.441 100.385C200.614 91.5086 188.147 82.3925 183.112 79.2738C178.077 76.1551 173.285 70.3978 169.69 66.0798C167.294 63.2011 161.061 58.6431 157.224 56.9637C150.991 52.4057 128.939 31.775 122.949 24.5783C120.552 21.6997 114.319 17.1416 110.725 12.8236L100.897 3.9476L95.1341 8.74483C81.9246 22.1773 50.9406 55.2787 38.9292 70.1504C12.2676 99.6539 9.14341 104.691 4.82111 108.289ZM112.393 23.6182C117.186 29.3756 128.211 39.6909 135.643 45.6883C143.074 51.6856 155.298 63.4403 165.125 72.3164C173.755 79.7531 185.979 91.5078 192.212 96.0658C209.714 108.301 224.576 120.295 224.334 122.934C224.334 122.934 218.813 125.092 210.897 124.372C204.178 125.092 193.38 126.77 188.102 126.29C181.384 127.009 170.585 128.688 162.669 127.968C155.95 128.687 149.232 129.406 149.232 129.406C147.791 130.606 146.835 126.528 147.321 121.25C148.534 108.057 139.904 100.621 126.467 102.059C120.947 104.218 119.749 102.778 118.793 98.7003C116.882 90.5444 104.173 84.067 99.8511 87.6649C98.4103 88.8642 97.2122 87.4249 97.2122 87.4249C96.0141 85.9855 93.1477 73.7516 95.0888 52.6425C95.1039 38.0099 95.5892 32.7326 98.4707 30.334C99.9115 29.1347 101.352 27.9354 100.397 23.8574C98.0005 20.9788 99.6839 17.1408 101.125 15.9415C101.367 13.3029 103.764 16.1815 112.393 23.6182ZM136.993 132.284C131.23 137.081 112.272 140.679 100.276 140.918C97.6371 140.678 93.8001 138.998 92.602 137.559C89.0076 133.241 85.9136 109.013 89.0378 103.976C90.9639 97.4994 96.7269 92.7022 102.247 90.5436C106.327 89.5843 114.714 99.6596 112.788 106.136C113.501 112.853 113.501 112.853 120.462 109.495C131.745 102.539 143.256 107.577 142.286 118.132C142.998 124.848 142.756 127.487 136.993 132.284ZM90.7665 56.2404C89.7959 66.795 90.0235 78.7889 90.979 82.8669C90.4937 88.1441 90.0084 93.4214 86.8842 98.4587C83.76 103.496 82.0766 107.334 83.5023 120.767C85.3981 143.556 87.7944 146.434 97.1518 145.955C106.509 145.476 136.265 140.2 140.587 136.602C143.469 134.204 162.426 130.607 172.982 131.567C178.259 132.047 182.096 133.726 183.537 132.527C183.537 132.527 191.696 130.608 201.054 130.129C207.772 129.41 217.13 128.93 217.13 128.93C218.571 127.731 220.011 126.532 221.209 127.971C227.685 129.891 227.685 129.891 209.911 149.56C204.148 154.357 196.459 165.631 189.255 171.627C184.69 177.864 175.56 190.337 168.114 198.972C160.667 207.607 153.221 216.242 151.78 217.442C148.898 219.84 147.458 221.04 145.061 218.161C142.665 215.282 138.828 213.603 137.387 214.802C137.387 214.802 133.55 213.123 132.352 211.684C129.956 208.805 126.362 204.487 121.327 201.368C116.292 198.25 108.86 192.252 102.627 187.694C95.1955 181.697 82.7291 172.581 75.2977 166.583C66.6682 159.147 58.0388 151.71 55.3999 151.47C53.0036 148.591 44.3742 141.155 36.9428 135.157C11.0544 112.847 9.85623 111.408 12.9804 106.371L21.625 99.1747C27.6307 91.7388 43.7217 75.9078 67.5019 48.8029C79.2706 36.5698 88.4005 24.0966 88.4005 24.0966C92.4801 23.1374 91.9948 28.4146 90.7665 56.2404Z" fill="#C48B68"/>
<path d="M237.528 124.134C237.528 124.134 219.511 146.442 198.37 173.787C194.047 177.384 184.918 189.858 175.788 202.331C166.658 214.804 157.771 224.638 156.33 225.838C154.889 227.037 152.008 229.436 152.008 229.436C153.206 230.875 154.404 232.314 152.963 233.514C151.522 234.713 149.126 231.834 142.893 227.276C139.298 222.958 129.471 214.082 120.599 209.284C95.6657 191.052 20.154 129.639 6.73206 116.445C1.93959 110.688 1.93959 110.688 4.82111 108.289C9.14341 104.691 12.2676 99.6539 38.9292 70.1504C50.9406 55.2787 81.9246 22.1773 95.1341 8.74483L100.897 3.9476L110.725 12.8236C114.319 17.1416 120.552 21.6997 122.949 24.5783C128.939 31.775 150.991 52.4057 157.224 56.9637C161.061 58.6431 167.294 63.2011 169.69 66.0798C173.285 70.3978 178.077 76.1551 183.112 79.2738C188.147 82.3925 200.614 91.5086 210.441 100.385C220.269 109.261 230.097 118.137 233.934 119.816C236.33 122.695 237.528 124.134 237.528 124.134ZM241.163 124.105L235.675 117.513L235.062 117.245C231.647 115.75 221.376 106.488 212.322 98.3074C202.581 89.5057 189.956 80.2289 184.595 76.8943C179.951 74.0107 175.266 68.3829 171.851 64.2808C169.228 61.1287 162.91 56.4699 158.659 54.5267C152.322 49.7863 130.909 29.7457 125.11 22.7794C123.9 21.3256 122.018 19.6512 119.839 17.7368C117.452 15.6306 114.731 13.2412 112.886 11.0247L112.754 10.8663L112.593 10.732L102.766 1.85597L100.973 0.229493L93.2361 6.66978L93.1472 6.76813C80.5693 19.5529 49.3309 52.8174 36.8102 68.308C23.465 83.0718 15.8984 91.8557 11.3705 97.1111C6.8594 102.328 4.99778 104.487 3.02393 106.13C-2.01874 110.328 -0.0897625 112.645 4.57092 118.244L4.65479 118.345L4.75307 118.434C18.9684 132.405 94.744 193.842 118.929 211.527L119.078 211.647L119.243 211.728C127.506 216.205 137.185 224.815 140.708 229.046L140.923 229.305L141.197 229.517C142.98 230.81 144.467 232.009 145.67 232.957C149.18 235.737 151.956 237.958 154.736 235.644C156.984 233.773 156.597 231.609 155.755 229.923L158.103 227.968C159.846 226.517 168.996 216.294 178.032 203.972C186.928 191.863 196.104 179.328 200.167 175.946L200.397 175.754L200.58 175.504C221.464 148.495 239.527 126.125 239.707 125.902L241.163 124.105Z" fill="#C48B68"/>
</svg>
