<svg width="38" height="38" viewBox="0 0 38 38" fill="none" xmlns="http://www.w3.org/2000/svg">
<circle cx="18.9258" cy="19.0176" r="18.418" fill="#F40000"/>
<path d="M26.9498 18.0167C26.9498 17.6595 26.8903 17.2428 26.8903 16.7665C26.8308 16.2902 26.7712 15.814 26.7117 15.3972C26.5926 14.921 26.414 14.5638 26.0568 14.2661C25.7592 13.9685 25.3424 13.7898 24.9257 13.7303C23.5565 13.5517 21.5323 13.4922 18.7938 13.4922C16.0553 13.4922 13.9717 13.5517 12.6619 13.7303C12.2452 13.7898 11.8285 13.9685 11.5308 14.2661C11.2331 14.5638 10.995 14.921 10.8759 15.3972C10.7569 15.814 10.6974 16.2307 10.6974 16.7665C10.6378 17.2428 10.6378 17.6595 10.6378 18.0167C10.6378 18.3739 10.6378 18.7906 10.6378 19.3859C10.6378 19.9813 10.6378 20.4575 10.6378 20.7552C10.6378 21.1124 10.6974 21.5291 10.6974 22.0054C10.7569 22.4817 10.8164 22.9579 10.8759 23.3746C10.995 23.8509 11.1736 24.2081 11.5308 24.5058C11.8285 24.8034 12.2452 24.982 12.6619 25.0416C14.0312 25.2202 16.0553 25.2797 18.7938 25.2797C21.5323 25.2797 23.616 25.2202 24.9257 25.0416C25.3424 24.982 25.7592 24.8034 26.0568 24.5058C26.3545 24.2081 26.5926 23.8509 26.7117 23.3746C26.8308 22.9579 26.8903 22.5412 26.8903 22.0054C26.9498 21.5291 26.9498 21.1124 26.9498 20.7552C26.9498 20.398 26.9498 19.9813 26.9498 19.3859C26.9498 18.7906 26.9498 18.3143 26.9498 18.0167ZM21.9491 19.8622L17.246 22.7793C17.1864 22.8388 17.0674 22.8984 16.9483 22.8984C16.8292 22.8984 16.7697 22.8984 16.6506 22.8388C16.472 22.7198 16.353 22.5412 16.353 22.3031V16.4093C16.353 16.1712 16.472 15.9926 16.6506 15.8735C16.8292 15.7544 17.0674 15.7544 17.246 15.8735L21.9491 18.7906C22.1277 18.9097 22.2467 19.0883 22.2467 19.2669C22.2467 19.4455 22.1277 19.7431 21.9491 19.8622Z" fill="white"/>
</svg>
